<svg width="844" height="353" viewBox="0 0 844 353" fill="none" xmlns="http://www.w3.org/2000/svg">
<path d="M335.747 178.679L335.753 178.686L335.747 178.679Z" fill="#E5E4D9"/>
<path d="M355.342 160.143C355.111 160.711 355.342 161.139 355.832 161.546C355.615 160.683 356.533 160.381 356.666 159.645C356.028 159.441 355.58 159.567 355.342 160.143Z" fill="#E5E4D9"/>
<path d="M357.317 161.469C357.352 161.546 357.359 161.651 357.415 161.679C357.471 161.707 357.667 161.714 357.667 161.553C357.667 161.392 357.576 161.413 357.513 161.378C357.45 161.342 357.352 161.371 357.317 161.469Z" fill="#E5E4D9"/>
<path d="M487.326 119.33C487.328 119.292 487.32 119.253 487.303 119.219C487.286 119.184 487.26 119.155 487.228 119.134C486.8 119.036 486.695 119.407 486.527 119.653C486.807 119.618 487.179 119.751 487.326 119.33Z" fill="#E5E4D9"/>
<path d="M667.002 3.34036C666.75 1.03909 665.041 -0.385175 662.8 0.0919181C661.741 0.398687 660.708 0.790518 659.711 1.2636C661.504 1.89505 663.549 0.330465 665.055 2.82819C664.588 2.98082 664.103 3.07048 663.612 3.0948C660.727 2.86236 657.824 3.17654 655.054 4.02092C651.245 5.03825 647.463 6.21695 643.737 7.52896C640.819 8.43129 638.106 9.89979 635.753 11.8509C634.444 13.0226 634.633 14.1521 636.258 14.7766C637.777 15.3341 639.444 15.3341 640.964 14.7766C644.192 13.7031 647.351 12.4122 650.614 11.5001C655.103 10.2372 659.144 7.99202 663.311 6.03454C665.412 5.0593 665.58 4.95406 667.289 6.58179C667.877 7.13606 668.389 7.58509 669.439 7.10098C668.816 6.31518 668.178 5.64865 667.667 4.91196C667.322 4.44968 667.094 3.91041 667.002 3.34036ZM637.301 12.9945C638.602 11.5991 640.25 10.577 642.077 10.0337C645.054 8.93218 648.03 7.81662 651.034 6.78526C653.766 5.85212 656.504 4.91196 659.438 4.85584C659.789 4.85584 660.139 4.90495 660.489 4.926C653.675 9.40927 641.202 13.6049 637.301 12.9945Z" fill="#E5E4D9"/>
<path d="M139.536 85.5057C137.057 84.5515 134.571 83.6043 132.071 82.6993C131.479 82.556 130.873 82.4807 130.264 82.4747C122.917 81.696 116.145 84.0955 109.352 86.3476C109.03 86.4529 108.799 86.8247 108.224 87.3509C120.529 84.0884 127.539 83.2044 131.055 84.4954C130.646 84.737 130.22 84.948 129.78 85.1268C127.679 85.7793 125.501 86.2494 123.478 87.0703C120.729 88.1651 118.053 89.4353 115.466 90.873C113.582 91.9394 113.631 93.4479 115.242 94.9493C115.852 95.5333 116.588 95.9686 117.393 96.2217C118.198 96.4748 119.051 96.5388 119.885 96.4087C122.002 96.1929 124.092 95.7675 126.125 95.1388C128.401 94.3389 130.502 93.0339 132.715 92.0517C135.271 90.887 136.966 89.14 137.057 86.1722C137.057 86.06 137.239 85.9477 137.358 85.8074C139.207 85.4285 140.159 86.8528 141.476 87.7859C141.419 87.2546 141.203 86.7528 140.857 86.346C140.511 85.9393 140.051 85.6464 139.536 85.5057ZM135.166 87.9543C134.763 88.7783 134.175 89.4984 133.45 90.0591C130.077 92.2632 126.358 93.8831 122.448 94.8511C121.775 94.9663 121.093 95.018 120.41 95.0055C119.009 95.0055 117.672 94.9213 116.565 93.9039C115.697 93.1111 115.676 92.6831 116.565 91.8833C116.787 91.6738 117.037 91.4967 117.308 91.3571C120.935 89.6662 124.381 87.5614 128.331 86.6283C129.57 86.3336 130.761 85.8284 132 85.5267C132.654 85.3545 133.338 85.3282 134.003 85.4496C134.261 85.5112 134.502 85.6305 134.708 85.7986C134.913 85.9667 135.078 86.1791 135.19 86.4201C135.302 86.661 135.358 86.9242 135.353 87.1899C135.349 87.4556 135.285 87.7169 135.166 87.9543Z" fill="#E5E4D9"/>
<path d="M224.367 202.892C227.798 202.583 231.027 202.436 234.094 204.176C234.331 204.896 234.337 205.673 234.112 206.397C233.887 207.121 233.443 207.757 232.841 208.217C230.263 210.322 227.665 212.427 224.927 214.356C222.826 215.829 220.459 216.952 218.246 218.285C214.135 220.769 209.975 223.119 205.038 223.463C204.207 223.548 203.37 223.56 202.537 223.498C201.137 223.33 200.584 222.432 201.032 221.084C201.169 220.648 201.39 220.243 201.683 219.892C204.197 217.085 206.725 214.279 209.268 211.472C211.369 209.164 213.47 206.877 215.438 204.702C213.81 205.542 212.362 206.69 211.173 208.084C208.833 210.581 206.417 212.995 204.099 215.528C202.628 217.062 201.273 218.704 200.044 220.439C198.56 222.642 199.715 224.712 202.383 224.887C204.362 225.096 206.361 224.801 208.196 224.031C210.192 223.14 212.279 222.446 214.289 221.569C215.466 221.056 216.551 220.348 217.7 219.765C219.24 218.973 220.858 218.306 222.343 217.415C223.827 216.524 225.354 216.201 226.615 214.938C228.015 213.535 229.864 212.707 231.426 211.508C233.121 210.21 234.704 208.778 235.516 206.694C235.774 206.136 235.845 205.51 235.718 204.908C235.592 204.307 235.276 203.762 234.816 203.355C232.596 201.096 227.126 200.78 224.367 202.892Z" fill="#E5E4D9"/>
<path d="M631.803 200.191C631.376 200.099 630.973 199.918 630.62 199.659C630.268 199.4 629.974 199.07 629.758 198.689C627.216 195.097 623.841 193.076 619.253 193.666C617.916 193.841 616.662 194.276 616.074 196.1C618.504 195.939 620.535 194.585 622.916 195.574C625.139 196.355 627.087 197.769 628.519 199.643C627.181 200.45 625.97 201.046 624.898 201.846C623.308 203.018 623.091 204.393 624.044 206.014C624.996 207.635 626.782 208.077 628.876 207.361C630.193 206.919 630.893 205.488 630.627 203.853C630.522 203.214 630.459 202.569 630.375 201.902C632.224 201.503 633.379 202.225 634.409 203.362C635.109 204.113 635.711 205.039 637.266 204.765C635.9 202.478 634.283 200.745 631.803 200.191ZM629.002 204.035C628.933 204.382 628.782 204.707 628.562 204.984C628.342 205.261 628.06 205.481 627.738 205.627C627.416 205.772 627.064 205.839 626.712 205.82C626.359 205.802 626.016 205.7 625.71 205.523C625.533 205.414 625.382 205.268 625.269 205.093C625.155 204.919 625.081 204.722 625.053 204.516C625.025 204.31 625.043 204.1 625.106 203.901C625.169 203.703 625.275 203.521 625.416 203.369C625.856 202.849 626.409 202.439 627.034 202.171C627.659 201.903 628.338 201.785 629.016 201.825C629.053 202.562 629.051 203.299 629.009 204.035H629.002Z" fill="#E5E4D9"/>
<path d="M822.257 325.28C821.687 324.929 821.207 324.448 820.857 323.877C819.939 321.955 818.167 321.281 816.389 320.614C815.851 320.526 815.302 320.526 814.764 320.614C816.277 322.137 818.441 322.509 819.666 324.607C818.735 324.803 818.006 324.908 817.32 325.126C816.449 325.36 815.604 325.685 814.799 326.094C813.209 326.985 812.992 328.101 814.099 329.427C815.618 331.202 817.6 331.679 819.855 331.237C821.83 330.851 822.383 329.272 822.965 327.68C823.166 327.263 823.205 326.787 823.074 326.343C822.943 325.899 822.652 325.52 822.257 325.28ZM819.456 329.672C817.817 330.416 816.298 329.82 815.079 327.89C816.438 326.031 818.455 326.747 820.17 326.368C820.745 328.529 820.584 329.153 819.442 329.672H819.456Z" fill="#E5E4D9"/>
<path d="M107.202 343.031C106.397 342.273 105.71 342.07 104.989 342.456C104.184 342.872 103.432 343.383 102.748 343.978C101.718 344.904 100.794 345.95 99.8975 346.876C99.9395 348.061 99.9745 349.296 100.031 350.531C100.029 351.02 100.175 351.498 100.451 351.902C100.727 352.306 101.118 352.616 101.574 352.792C102.03 352.968 102.528 353.001 103.003 352.886C103.477 352.772 103.906 352.516 104.232 352.152C104.891 351.38 105.458 350.587 104.842 349.486C104.225 348.384 103.735 347.381 103.161 346.251C103.889 344.567 105.199 343.55 107.202 343.031ZM103.21 350.243C103.28 350.468 102.902 351.071 102.79 351.057C102.433 351.008 101.9 350.812 101.823 350.552C101.729 350.017 101.713 349.471 101.774 348.931L102.475 348.777C102.772 349.237 103.019 349.729 103.21 350.243Z" fill="#E5E4D9"/>
<path d="M843.961 163.475C843.758 162.584 843.489 161.709 843.155 160.858C842.546 159.28 841.51 158.424 839.843 158.683C837.772 159.077 835.731 159.616 833.736 160.297C832.938 160.543 832.034 161.111 832.426 162.093C832.585 162.46 832.815 162.792 833.104 163.068C833.393 163.344 833.734 163.559 834.107 163.7C835.295 163.944 836.51 164.034 837.721 163.967C838.022 163.967 838.33 163.588 838.722 163.328C837.322 162.458 835.599 163.489 834.457 162.149C835.382 160.746 836.873 160.662 838.253 160.367C840.851 159.813 841.173 160.009 842.084 162.528C842.427 163.482 842.553 164.584 843.898 165.384C843.985 164.752 844.006 164.112 843.961 163.475Z" fill="#E5E4D9"/>
<path d="M220.767 202.064C220.718 201.895 220.669 201.727 220.627 201.566L217.265 202.527C218.995 203.467 219.703 202.106 220.767 202.064Z" fill="#E5E4D9"/>
<path d="M223.225 202.765L221.355 204.239C222.931 204.042 222.931 204.042 223.225 202.765Z" fill="#E5E4D9"/>
<path d="M738.659 242.35C734.829 239.221 730.879 236.239 726.936 233.229C724.835 231.623 722.566 230.184 720.472 228.542C718.623 227.09 716.97 225.441 715.135 223.926C712.278 221.526 709.435 219.113 706.5 216.819C704.974 215.619 703.272 214.651 701.402 213.423L699.063 218.201L699.399 218.495C699.62 218.311 699.828 218.112 700.022 217.899C701.906 215.549 703.209 215.619 704.224 218.355C705.535 221.697 707.315 224.835 709.512 227.673C711.382 230.158 713.493 232.452 715.815 234.52C718.388 236.889 721.183 239.004 724.163 240.835C728.622 243.603 733.374 245.869 738.33 247.591C739.52 247.874 740.731 248.062 741.951 248.152C741.825 247.184 741.951 246.497 741.65 246.083C740.83 244.706 739.824 243.45 738.659 242.35ZM739.703 246.426C724.905 241.922 713.034 233.798 706.164 219.464L706.5 219.015C708.258 220.362 710.051 221.66 711.76 223.07C715.962 226.578 719.926 230.353 724.569 233.327C726.6 234.632 728.294 236.45 730.227 237.923C731.971 239.249 733.925 240.315 735.627 241.698C737.203 242.982 738.568 244.504 740.018 245.949L739.703 246.426Z" fill="#E5E4D9"/>
<path d="M739.969 134.008C739.599 133.09 739.067 132.247 738.4 131.517C737.916 130.958 737.318 130.51 736.646 130.201C735.975 129.893 735.245 129.731 734.507 129.728C735.062 130.201 735.66 130.621 736.292 130.984C739.794 133.306 740.018 137.039 736.846 139.572C734.24 141.676 731.621 143.718 729.03 145.816C728.407 146.328 727.629 146.847 728.07 147.879C730.662 148.58 731.096 148.58 733.491 147.416C736.117 146.153 738.792 144.813 739.619 141.747C740.041 139.831 740.921 138.047 742.182 136.548C742.245 136.477 742.182 136.267 742.126 135.944C740.865 135.986 740.361 135.165 739.969 134.008ZM731.495 146.09L738.085 140.792C737.595 143.353 734.878 145.598 731.495 146.097V146.09Z" fill="#E5E4D9"/>
<path d="M742.294 134.892L744.626 136.414L745.158 136.239C744.906 135.376 744.647 134.52 744.262 133.222L742.294 134.892Z" fill="#E5E4D9"/>
<path d="M725.906 129.097L724.891 128.704L724.744 129.09L725.766 129.468C725.815 129.307 725.857 129.181 725.906 129.097Z" fill="#E5E4D9"/>
<path d="M18.2602 32.8991C16.4814 32.1975 15.1087 32.1975 13.7921 32.8991C12.0973 33.8463 10.4235 34.7303 9.0509 36.2739C5.65431 40.1257 2.46082 44.0757 0.485893 48.8326C-0.914763 52.1933 0.857066 54.0105 3.95251 53.8842C5.16283 53.8204 6.35052 53.5301 7.45415 53.0283C11.0819 51.4005 12.9867 48.1591 14.7025 44.8265C16.2713 41.7885 16.5584 38.7365 14.3944 35.7898C14.2364 35.5033 14.1185 35.1964 14.0442 34.8777C14.9056 33.1587 16.8105 34.2673 18.2602 32.8991ZM14.2683 39.5434C14.2683 39.6907 14.2683 39.845 14.2683 39.9433C13.6591 44.9949 10.7667 50.1797 5.54926 52.1723C5.12379 52.3363 4.6742 52.4288 4.21864 52.4459C2.04062 52.5371 1.08117 51.4216 2.02661 49.4922C3.33172 46.9143 4.80076 44.4232 6.42467 42.0341C7.38412 40.5817 8.70074 39.375 9.73722 37.9718C10.5496 36.8772 11.46 36.1967 12.8257 36.7018C14.1913 37.207 14.1843 38.3927 14.2683 39.5434Z" fill="#E5E4D9"/>
</svg>
