<svg width="61" height="26" viewBox="0 0 61 26" fill="none" xmlns="http://www.w3.org/2000/svg">
<path d="M60.4307 2.10058C60.6675 1.83043 60.8028 1.48277 60.8126 1.11973V0.741467L60.538 0.486357C60.3323 0.294996 60.0648 0.188451 59.7871 0.187263C59.5306 0.186326 59.2824 0.279999 59.0877 0.45117L59.0276 0.499553C58.9871 0.539034 58.9441 0.575765 58.8989 0.609514C58.5974 0.639272 58.3182 0.785516 58.118 1.01857H58.0536L57.8262 1.2121L57.2684 1.65194C56.67 2.10991 56.097 2.60184 55.5521 3.12542L55.6036 2.93629C55.6294 2.83512 55.6508 2.74716 55.6637 2.68998L55.7667 2.25013L55.5007 1.91585C55.3326 1.70188 55.1195 1.52976 54.8772 1.41244C54.6349 1.29511 54.3698 1.23564 54.1019 1.23849C54.0033 1.23225 53.9044 1.23225 53.8058 1.23849H53.6599L53.5269 1.30887L53.2051 1.57277C53.0833 1.65592 52.9522 1.72385 52.8147 1.7751C52.1884 2.00434 51.6135 2.36034 51.1241 2.82193L51.0383 2.6284L50.8881 2.31611L50.7036 1.92465L50.5663 1.62995L50.2745 1.50679C49.6916 1.25713 49.0656 1.13 48.4338 1.13293H48.2064C48.0562 1.13293 47.7773 1.19011 46.8205 1.36604C46.4687 1.43202 46.031 1.51119 45.928 1.52439C45.5711 1.57106 45.2236 1.67496 44.8982 1.83228C44.7141 1.64013 44.4923 1.49021 44.2475 1.3924C44.0027 1.29459 43.7404 1.25113 43.478 1.26488H43.2978C43.0972 1.077 42.8358 0.97201 42.5641 0.970186C42.489 0.970289 42.4141 0.979141 42.341 0.996576H41.9763L41.3713 0.95699C40.8092 0.917404 40.084 0.864623 39.655 0.864623C39.4733 0.858669 39.2916 0.876405 39.1143 0.917404L38.5437 1.00537C37.628 1.10094 36.7222 1.27754 35.8362 1.53319C35.3327 1.57878 34.8343 1.67153 34.3473 1.81029L33.5664 2.01262C33.3686 1.82332 33.148 1.66073 32.9099 1.52879L32.6868 1.39683H32.4337C32.1505 1.39683 31.8673 1.42322 31.5755 1.43202C31.1464 1.43202 30.6916 1.45841 30.2325 1.50679C29.8122 1.56247 29.3973 1.65518 28.9925 1.7839C28.7277 1.86532 28.4583 1.92995 28.1858 1.97743H28.1301L28.2159 1.72232L27.7053 1.35725L27.4993 1.2077L27.229 1.00977L27.0574 0.886615L26.8557 0.855826C26.7886 0.85131 26.7212 0.85131 26.654 0.855826C26.3427 0.858716 26.0361 0.933907 25.7573 1.07575C25.5956 1.15375 25.4294 1.22132 25.2596 1.27808C24.9679 1.37108 24.6906 1.50583 24.4357 1.67833C24.2886 1.67822 24.1431 1.70899 24.008 1.76875C23.873 1.82851 23.7513 1.91599 23.6505 2.02581C22.4467 2.87369 21.3785 3.90789 20.484 5.09152C20.3767 4.51533 20.2737 3.93913 20.2351 3.4597L20.2094 3.12982L20.0291 2.95828V2.9099C19.9127 2.5327 19.6571 2.21704 19.3169 2.03021L19.038 1.88506L18.7333 1.96423L18.6475 1.98622C18.1049 2.09396 17.5939 2.32879 17.1544 2.67238L17.0171 2.72076C16.5647 2.85771 16.1351 3.06382 15.7427 3.33215C15.6149 3.15604 15.4712 2.99259 15.3136 2.84392L14.8846 2.40408L14.3568 2.67678C14.2367 2.73836 14.0264 2.83512 13.7818 2.94948C13.0255 3.25066 12.3056 3.6403 11.6365 4.11067C11.464 4.13818 11.3014 4.2109 11.1645 4.3218L10.8684 4.56371V4.8804L10.6196 4.52412H10.1905C8.95476 4.52412 8.6158 5.76448 8.4742 6.23512C8.46137 6.29165 8.44562 6.34744 8.427 6.40226C8.31646 6.64918 8.24963 6.91428 8.22963 7.18518C8.22009 7.26663 8.20576 7.34742 8.18672 7.42709C8.09583 7.52573 8.0263 7.64294 7.98268 7.77104C7.93905 7.89914 7.92231 8.03524 7.93357 8.17043C7.93686 8.72025 7.84685 9.26646 7.66754 9.78466C7.28722 11.1286 7.00045 12.4985 6.8094 13.884C6.24302 11.7991 5.56937 9.15128 5.52218 8.56189L5.59083 8.254L5.35484 7.93731C5.24276 7.73896 5.17259 7.51867 5.14888 7.29074C5.09729 6.96061 4.99748 6.64033 4.85282 6.34068L4.56963 5.79527L4.28215 5.84366C4.09428 5.68687 3.85935 5.60141 3.61709 5.60174C3.54859 5.59521 3.47964 5.59521 3.41113 5.60174H3.33819L3.26954 5.62813C3.06299 5.71078 2.8924 5.86693 2.78898 6.06798L2.72033 6.09877C2.40475 6.23817 2.11457 6.43152 1.86218 6.67056C1.65551 6.71153 1.47073 6.82893 1.343 7.00045C1.19998 7.13981 1.03058 7.2476 0.845275 7.31713C0.725134 7.37431 0.600703 7.43589 0.471981 7.51066L0 7.80096L0.0343259 8.34197V8.36836C0.0403808 8.60768 0.103741 8.8418 0.218827 9.05012C1.02119 10.484 2.24405 15.2651 2.43285 16.1316C2.48863 16.3779 2.60019 16.7518 2.7332 17.1828C2.92908 17.7577 3.08677 18.3455 3.20518 18.9422L3.13224 19.2897L3.38539 19.6064C3.44689 19.7345 3.48471 19.8732 3.49695 20.0154C3.49695 20.1122 3.53986 20.2266 3.5656 20.3409C3.84879 21.4845 5.28189 24.3919 5.57366 24.9109C5.62692 25.0927 5.7199 25.2597 5.84555 25.3992C5.9712 25.5387 6.12621 25.6469 6.2988 25.7158L6.44039 25.773H7.94215L8.19101 25.4431C8.22311 25.4052 8.25319 25.3656 8.28112 25.3243C8.60702 24.8302 9.03655 24.4169 9.5383 24.1148C9.6327 24.0708 9.9116 23.9388 10.1776 23.3099C10.3491 22.9539 10.3916 22.547 10.2978 22.1619C10.2907 22.0696 10.2907 21.977 10.2978 21.8848C10.4634 21.9384 10.6326 21.9796 10.8041 22.0079L11.3704 22.1091L11.6622 21.6077C11.688 21.5637 11.7137 21.5109 11.748 21.4405C11.8154 21.2932 11.9036 21.1569 12.0098 21.0359L12.3916 21.0007L12.6105 20.64C12.7049 20.472 12.7716 20.2892 12.8078 20.099C13.0023 19.9134 13.1751 19.7053 13.3227 19.4788L14.5284 19.5888L14.7773 19.2457C15.0003 19.004 15.2477 18.7873 15.5153 18.5991L16.2104 17.7986C16.3048 17.6579 16.455 17.4555 16.5408 17.3588C16.6395 17.2368 16.7312 17.1091 16.8154 16.9761C17.1245 16.4712 17.3127 15.8984 17.3646 15.3047L17.5706 15.1683L17.5963 14.7285C17.6574 14.2118 17.7607 13.7012 17.9052 13.2022L18.0683 13.5101H18.536H18.5832C18.8684 13.4882 19.1426 13.388 19.377 13.2198C19.3157 13.4383 19.274 13.6621 19.2525 13.8884C19.015 14.4479 18.8616 15.0411 18.7977 15.6478C18.6819 16.831 18.8921 17.0245 19.0637 17.1872L19.3083 17.4072H20.381L20.6256 17.1608C20.6366 17.1517 20.6467 17.1414 20.6556 17.1301C20.8232 16.9847 20.9505 16.7965 21.0246 16.5846C21.1876 16.4527 21.4537 16.2768 21.5481 16.2064L21.6382 16.1448C21.7823 16.0708 21.9086 15.965 22.0081 15.8349C22.1075 15.7049 22.1775 15.5538 22.2131 15.3927C22.4254 15.2628 22.5794 15.0527 22.6422 14.8077L22.7194 14.6757C22.9333 14.3355 23.1198 13.9781 23.2772 13.6069C23.303 13.6553 23.3244 13.6993 23.3502 13.7389L23.4231 13.84L23.5218 13.9148C23.853 14.1622 24.2231 14.3496 24.6159 14.469L24.8176 14.5438L25.1866 14.6845L25.5256 14.4866L25.6758 14.3942L25.7873 14.3282H25.8817C26.0142 14.3113 26.1449 14.2818 26.2722 14.2403C27.3409 13.8268 28.3409 13.2467 29.2371 12.5205L29.383 12.3973L29.4602 12.2302C29.8785 11.6481 30.3314 11.0928 30.8161 10.5676C30.7002 10.8227 30.5672 11.1526 30.387 11.5528C30.2926 11.7903 30.1596 12.1114 30.1124 12.2038C29.927 12.4822 29.8526 12.8229 29.9045 13.1557C29.9563 13.4886 30.1305 13.7886 30.3913 13.994L30.623 14.2007H31.9831L32.2363 13.906C32.5314 13.6512 32.8555 13.4341 33.2017 13.2594C33.3261 13.1934 33.545 13.0703 34.3001 12.1818C34.888 11.4913 35.1154 11.2229 35.1282 10.9063C35.1926 10.7655 35.3342 10.5148 35.4415 10.3301C35.4396 10.3638 35.4396 10.3975 35.4415 10.4312L35.4844 10.8403L35.7847 11.0294C35.8896 11.1629 36.0196 11.2734 36.167 11.3543C36.3145 11.4352 36.4763 11.4847 36.6429 11.5H36.8402L37.0205 11.4209C37.1363 11.3725 37.2736 11.3285 37.4238 11.2801C37.966 11.1548 38.4609 10.8705 38.8483 10.462C39.1421 10.3728 39.4151 10.2231 39.6507 10.0222C39.9907 9.7015 40.2687 9.31801 40.4702 8.89177C40.5346 8.77302 40.5946 8.65866 40.6547 8.55749L40.9122 8.19682C40.932 8.26301 40.9564 8.32768 40.9851 8.39035C41.0667 8.57759 41.1689 8.75468 41.2897 8.91817C41.3352 8.97898 41.3754 9.04373 41.4099 9.1117L41.5129 9.41959L41.7918 9.58233C41.9033 9.64391 42.0106 9.69229 42.0964 9.73188L42.1994 9.78026L42.3066 9.9562L42.577 10.0574C42.7151 10.106 42.86 10.1312 43.006 10.1321C43.1972 10.1295 43.3863 10.0908 43.5638 10.0178C43.9707 10.0058 44.3744 9.94074 44.7652 9.82424L45.1342 9.73627C45.828 9.58789 46.485 9.29605 47.0651 8.87858C47.0808 8.92171 47.1009 8.96299 47.1251 9.00173L47.3611 9.44158H48.7685L48.9744 9.30523C49.148 9.20308 49.3304 9.11767 49.5194 9.05012C49.9298 8.91467 50.3102 8.69799 50.6392 8.41234L50.8452 8.21002C51.022 8.52694 51.2498 8.81097 51.5188 9.05012L52.0423 9.56913L52.6173 9.1029L52.6559 9.07211L52.9133 9.12929L53.1622 9.02373C54.3117 8.42723 55.4061 7.725 56.4317 6.92567C56.745 6.61338 57.4315 5.81727 58.2253 4.89359C59.0191 3.96992 59.8043 3.05505 60.1561 2.69437L60.4522 2.39968L60.4178 2.12258M10.0403 13.8576C10.042 14.2046 10.0219 14.5513 9.98025 14.8956L9.8172 15.0188C9.83909 15.2277 9.84769 15.4378 9.84295 15.6478L9.76142 15.8061L9.78287 16.0612C9.81066 16.4081 9.81066 16.7568 9.78287 17.1037L9.54259 17.3632C9.69706 17.6271 9.66273 18.6255 9.59837 19.6679C9.53036 19.9556 9.51005 20.253 9.5383 20.5476V20.6268C9.5383 20.7236 9.5383 20.8159 9.5383 20.9039C9.51204 21.4094 9.51204 21.9159 9.5383 22.4214C9.55608 22.5931 9.53854 22.7668 9.48681 22.9312C9.43508 23.0956 9.3503 23.2471 9.23795 23.3758C8.57424 23.7639 8.00733 24.3044 7.58173 24.9549H6.63777C6.42752 24.8757 6.42752 24.6646 6.35029 24.515C6.1143 24.0972 4.67261 21.181 4.41517 20.1386C4.37887 19.7621 4.26164 19.3986 4.07191 19.0742C4.1663 18.6343 3.42401 16.6022 3.2867 15.9689C3.12365 15.2299 1.87505 10.2509 0.978287 8.64986C0.908855 8.53888 0.867559 8.41188 0.858147 8.28039C1.27901 8.12065 1.66318 7.87359 1.98661 7.55465C1.98661 7.53266 2.0381 7.52826 2.0853 7.52826H2.2698C2.49721 7.08841 2.97348 6.96966 3.36823 6.74534C3.52269 6.65737 3.44975 6.50342 3.56989 6.45504H3.6128C3.81446 6.45504 3.87024 6.74534 4.07191 6.74534H4.11052C4.38084 7.26875 4.29932 7.91532 4.68977 8.44753C4.56963 9.00174 6.97244 17.3764 6.97244 17.3764C7.3629 16.9101 7.76194 12.0982 8.45704 10.0574C8.6747 9.40492 8.78208 8.71917 8.77455 8.02968C9.11781 7.6778 8.97193 7.14999 9.1693 6.77613C9.31518 6.47263 9.38813 5.38622 10.1648 5.38622C10.2935 5.56655 10.0789 6.01959 10.5938 6.23952C10.5938 6.49463 10.5295 7.79216 10.6796 8.11325C10.6796 8.11325 10.6796 8.11325 10.6796 8.14404C10.6067 8.69824 10.5166 9.29643 10.4308 9.86383C10.1774 11.1817 10.0339 12.5192 10.0017 13.862M13.3485 15.2343C13.2726 15.4481 13.218 15.6691 13.1854 15.8941C12.9559 16.3395 12.8589 16.8442 12.9065 17.3456C12.9087 17.3763 12.9087 17.4072 12.9065 17.4379C12.7922 17.734 12.7452 18.0529 12.7692 18.3704C12.7736 18.4319 12.7736 18.4936 12.7692 18.5551L12.7392 18.7663C12.5904 19.0546 12.3877 19.3102 12.1428 19.5184C11.9368 19.6416 11.9883 19.9582 11.8596 20.1914C11.2932 20.2485 11.0229 20.9699 10.9028 21.1722C10.6915 21.1458 10.4874 21.0771 10.3021 20.9699C10.3127 20.8558 10.3127 20.7409 10.3021 20.6268V20.4553C10.3021 20.2353 10.3278 20.0154 10.3407 19.8307C10.3545 19.7833 10.3732 19.7376 10.3965 19.6943C10.4866 19.5228 10.3965 19.2545 10.3965 19.0302C10.3943 18.5127 10.4244 17.9955 10.4866 17.4819L10.5852 17.3764C10.5819 16.7051 10.6134 16.0341 10.6796 15.3663L10.9886 15.1288L10.8384 14.5658C10.8054 14.1354 10.8358 13.7025 10.9285 13.2814L11.0787 13.2242L11.1001 12.648C11.143 11.2933 11.2675 10.2069 11.3619 9.41079C11.4289 8.98768 11.4604 8.55947 11.4563 8.13084C11.5542 7.48199 11.5958 6.82553 11.5807 6.16914C11.5807 5.95362 11.8381 5.77328 11.6837 5.57095C11.5292 5.36862 11.5936 5.20588 11.6021 5.02115C11.7309 4.91998 11.9111 5.05194 12.0312 4.876C12.2114 4.56811 14.1337 3.7456 14.6657 3.4729C14.8202 3.62684 15.3179 4.07109 15.0948 4.61209C15.069 4.67435 15.0389 4.73462 15.0047 4.79243C14.8288 5.49618 14.6142 6.70135 14.4126 7.9681C14.0479 9.68349 13.7261 11.3373 13.7733 12.261C13.7453 12.5955 13.6878 12.9267 13.6016 13.2506C13.4989 13.7493 13.4542 14.2587 13.4686 14.7681C13.4713 14.9189 13.4435 15.0686 13.3871 15.2079M23.5004 9.14688C23.4103 9.33749 23.3634 9.54648 23.3631 9.75827L23.2944 9.80665L23.2257 10.1497C23.1175 10.7105 23.06 11.2803 23.0541 11.8519C22.9855 12.0543 22.9297 12.2082 22.9039 12.2918C22.6375 13.0782 22.2954 13.8355 21.8827 14.5526C21.8527 14.6801 21.7412 14.6977 21.6124 14.6977H21.4537C21.3421 14.9176 21.5695 15.2431 21.222 15.4059C20.9774 15.5818 20.2051 16.0876 20.2351 16.224C20.2651 16.3603 20.1493 16.4615 20.0463 16.567H19.6172C19.5498 15.7006 19.7114 14.8315 20.0849 14.0511C19.939 13.6113 21.6382 9.36241 21.7669 9.02813C21.8956 8.69384 21.7969 8.5223 21.7969 8.5223C21.6638 8.8256 21.4777 9.10138 21.2477 9.33602C21.0127 9.62611 20.8865 9.99263 20.8916 10.3696C20.5741 10.6468 19.7159 11.6892 19.673 12.0894C19.3198 12.2996 18.956 12.4905 18.5832 12.6612C18.5354 12.5314 18.4603 12.414 18.3631 12.3174C18.2659 12.2209 18.1491 12.1475 18.0211 12.1026C17.8967 11.7024 17.7765 11.3065 17.6564 10.9019L17.4461 11.113C17.4676 11.9531 16.8154 13.5937 16.751 14.6625L16.5236 14.8077C16.5575 15.4098 16.4075 16.0079 16.0945 16.5187C15.9615 16.7386 15.2836 17.5039 15.3351 17.7414C14.8678 17.9835 14.4521 18.3184 14.1122 18.7267C13.9528 18.7206 13.7939 18.7059 13.636 18.6827C13.6874 18.3572 13.5673 18.0185 13.7604 17.6755C13.8462 17.5259 13.636 16.5231 14.035 16.2372C14.035 15.5598 14.3311 15.3839 14.301 14.7373C14.271 14.0907 14.7301 12.8152 14.6915 12.2126C14.6529 11.3901 14.979 9.72748 15.3179 8.12645C15.5968 6.80691 15.8843 5.55776 15.9916 4.81442C16.0606 4.60822 16.0855 4.38919 16.0645 4.17225C16.5279 3.70162 17.4805 3.50369 17.5963 3.39373C17.98 3.08227 18.4348 2.87637 18.9178 2.79554C19.2354 2.96268 19.2053 3.33215 19.4027 3.52568C19.5572 4.92438 19.9476 6.49462 19.9348 7.44029C20.9779 5.52611 22.4482 3.89226 24.2255 2.67238C24.2511 2.627 24.2892 2.59032 24.3349 2.56687C24.3807 2.54342 24.4321 2.53423 24.4829 2.54043H24.6374C24.6802 2.54547 24.7236 2.53923 24.7634 2.5223C24.8031 2.50536 24.8381 2.4783 24.8648 2.44366C25.0279 2.21055 25.6629 2.08739 26.152 1.84547C26.3133 1.76285 26.4909 1.71922 26.6712 1.71792H26.7613L27.2419 2.0654C27.2118 2.15776 27.2075 2.21934 27.1818 2.23254C27.0059 2.30291 26.8729 2.36449 26.8171 2.6064C26.7311 2.92566 26.6206 3.23745 26.4867 3.53887C25.2419 5.08651 24.2836 6.85443 23.6591 8.75542C23.6076 8.90937 23.5433 9.0853 23.5218 9.13369M41.1911 6.01959C41.0586 6.29809 40.9647 6.59418 40.9122 6.89928C40.4359 7.53266 40.084 8.01648 40.0111 8.13964C39.7926 8.60465 39.5029 9.03083 39.153 9.40199C38.9369 9.58468 38.6753 9.70196 38.3978 9.74067C38.0417 10.3696 37.3294 10.396 36.7458 10.6511C36.5099 10.6511 36.4541 10.4268 36.3168 10.3257C36.2353 9.60432 36.63 9.04132 36.9389 8.45193C37.7585 6.8509 39.4748 4.82762 39.9682 4.21184C40.2857 3.82477 41.0194 2.86591 41.0194 2.86591C40.2342 2.80873 39.9596 2.97587 39.1615 2.95388C38.7925 3.1694 37.1706 5.38182 37.0891 5.59294C36.8488 6.23952 35.3256 8.02528 35.0939 9.19967C35.051 9.41519 34.2358 10.5852 34.3087 10.8227C33.8696 11.4212 33.3753 11.9751 32.8327 12.4765C32.3966 12.7034 31.99 12.9856 31.6227 13.3166H30.9491C30.8952 13.2795 30.8494 13.2313 30.8147 13.1751C30.78 13.1189 30.7571 13.0559 30.7474 12.9902C30.7377 12.9244 30.7415 12.8573 30.7585 12.7931C30.7755 12.7289 30.8053 12.669 30.8461 12.6173C30.9576 12.4413 31.4682 11.069 31.7042 10.6248C31.9402 10.1805 32.1891 9.19087 32.9915 7.66021C33.2232 7.22037 34.3988 4.80123 34.8236 4.00951H34.5275C33.7595 4.00951 33.7552 4.3218 33.1245 4.3218H32.9915C33.0046 4.77786 32.9104 5.23046 32.7169 5.64133C32.5495 6.04159 31.7686 7.55025 31.3524 8.72023C30.8504 9.19967 28.9153 11.3593 28.7007 11.8387C27.881 12.5032 26.9664 13.0343 25.989 13.4134C25.8388 13.4661 25.6586 13.4662 25.5041 13.5189C25.3716 13.5805 25.2439 13.6526 25.1222 13.7345C24.7334 13.6294 24.3638 13.46 24.0281 13.233C23.9125 12.8322 23.8617 12.4147 23.8779 11.9971C23.8716 11.4347 23.9219 10.8731 24.0281 10.3213C24.3156 10.1233 24.1011 9.79785 24.2341 9.52955C24.4572 9.06771 25.1137 6.45064 27.1646 4.01391C27.5224 3.59687 27.908 3.20593 28.3188 2.84392C28.9796 2.74715 29.6061 2.45246 30.3355 2.37329C31.0649 2.29412 31.7943 2.31611 32.5109 2.26773C33.0129 2.57122 33.0129 2.57122 33.2103 2.91869C33.8153 2.87471 35.39 2.39968 35.8748 2.39968H35.9692C36.5828 2.09619 39.0972 1.81909 39.3246 1.74871C39.4336 1.72877 39.5444 1.7214 39.655 1.72672C40.3329 1.72672 42.5169 1.83668 42.5641 1.83668C42.7186 1.83668 42.8301 2.00822 42.9545 2.12697H43.478C43.7179 2.1096 43.9569 2.17125 44.1602 2.30291C43.7421 2.65225 43.3597 3.04426 43.0189 3.4729L42.5212 4.04469L42.6499 4.19424L42.401 4.44935C41.9122 4.8971 41.5028 5.42839 41.1911 6.01959ZM47.3697 7.45788L47.3011 7.52386L47.035 7.78777V7.88893C46.4593 8.39562 45.7689 8.74643 45.027 8.90937C44.5648 9.04588 44.0905 9.1343 43.611 9.17327H43.5467C43.3965 9.17327 43.2506 9.29203 43.0618 9.29203C43.0107 9.29112 42.9601 9.28222 42.9116 9.26564C42.7829 9.05012 42.5083 8.99294 42.2552 8.8258C42.1651 8.55309 41.9291 8.33317 41.8261 8.03848C41.7216 7.77534 41.6861 7.48874 41.7231 7.20717C41.7474 6.93126 41.8185 6.66183 41.9333 6.41105C42.2753 5.80965 42.71 5.26898 43.2206 4.81002L43.7655 4.24702L43.6067 4.05789C44.0203 3.49467 44.5396 3.02208 45.1342 2.66798C45.4033 2.52907 45.6935 2.43833 45.9924 2.39968C46.2756 2.36449 48.0004 2.02141 48.1978 2.01262H48.3909C48.9119 2.009 49.4283 2.11219 49.9098 2.31611L50.2402 3.01986C50.0322 3.43981 49.871 3.88245 49.7596 4.33939C49.1804 5.02555 48.7299 5.62373 48.4982 5.94482C48.4191 6.0617 48.3475 6.18364 48.2836 6.30989C48.2836 6.35388 48.2364 6.40666 48.215 6.44184C48.0473 6.50941 47.8991 6.61952 47.7843 6.76184C47.6695 6.90416 47.5918 7.07404 47.5585 7.25555C47.4947 7.34034 47.4228 7.41843 47.344 7.48867M59.5511 2.11378C58.8217 2.84832 56.4274 5.74249 55.831 6.33628C54.8836 7.06263 53.879 7.70702 52.8275 8.2628C52.7648 8.25465 52.7014 8.25465 52.6387 8.2628C52.4366 8.26609 52.2421 8.34241 52.0895 8.47832C51.7871 8.22008 51.5714 7.87102 51.4729 7.48038C51.3743 7.08974 51.3979 6.67725 51.5403 6.30109C51.5045 6.27261 51.4611 6.25576 51.4159 6.25271C51.3837 6.25719 51.3532 6.27009 51.3274 6.29017C51.3015 6.31024 51.2811 6.33681 51.2682 6.36731C51.2552 6.39782 51.2502 6.43122 51.2535 6.46431C51.2568 6.4974 51.2684 6.52905 51.2871 6.5562C50.901 6.99605 50.5406 7.43589 50.1244 7.85374C49.7082 8.27159 49.0817 8.31998 48.5754 8.65866H47.9103C47.8636 8.55419 47.8472 8.43814 47.8631 8.32437C47.8674 8.2805 47.8674 8.2363 47.8631 8.19242C48.101 8.00984 48.2802 7.75868 48.378 7.47108C48.4038 7.36991 48.4553 7.28194 48.5196 7.26435C48.9144 7.14559 48.9787 6.75413 49.1804 6.47263C49.3821 6.19113 49.9184 5.48298 50.5449 4.74405C50.8109 4.43176 51.0984 4.10627 51.403 3.77639C51.8368 3.28753 52.374 2.90688 52.9734 2.66358C53.2967 2.54331 53.606 2.38696 53.8959 2.19735H54.089C54.234 2.19305 54.378 2.22386 54.5092 2.28729C54.6404 2.35073 54.7552 2.44499 54.8442 2.56242C54.7326 3.00226 54.1705 4.99476 54.3593 5.57535C54.8485 5.20148 55.1488 4.62089 55.7109 4.34379C55.9726 3.7544 57.6803 2.50084 58.3454 1.93784C58.6329 1.93784 58.6801 1.53758 58.9719 1.52879C59.2211 1.48983 59.4489 1.36213 59.6155 1.16812C59.6591 1.12812 59.7157 1.10617 59.7742 1.10654C59.8457 1.10852 59.9142 1.13659 59.9673 1.18571C59.9673 1.57277 59.5125 1.75311 59.5597 2.14897" fill="#E5E4D9"/>
<path d="M45.5418 5.55334C45.3345 5.74993 45.1766 5.99501 45.0818 6.26768C44.9869 6.54034 44.9577 6.83248 44.9969 7.11919H45.3144C45.994 6.44666 46.5724 5.67437 47.0307 4.8276C47.1945 4.54999 47.2833 4.23273 47.2881 3.90833C46.6504 4.39289 46.0637 4.9442 45.5375 5.55334" fill="#E5E4D9"/>
<path d="M29.9022 4.30398L29.7993 4.44033L29.6534 4.64706L29.6062 4.71304C29.5767 4.75686 29.5437 4.79806 29.5075 4.83619C29.4546 4.89572 29.3939 4.94752 29.3273 4.99014C29.2809 5.01999 29.2302 5.04225 29.1771 5.05611C29.1385 5.11769 29.0913 5.18367 29.0484 5.25844C28.8853 5.53994 28.6965 5.91821 28.5035 6.31847L28.4005 6.54279L28.349 6.64835L28.1344 7.11898L27.9242 7.55883L27.847 7.73036C27.8126 7.80514 27.7783 7.87991 27.744 7.94589C27.7097 8.01187 27.714 8.01186 27.6968 8.04265C27.6796 8.07344 27.6067 8.22299 27.5681 8.29336C27.5565 8.30997 27.5464 8.32764 27.538 8.34615L27.4608 8.4693C27.4608 8.52208 27.4608 8.57926 27.4608 8.63204V8.71562C27.4481 8.97734 27.4078 9.23689 27.3407 9.48974C27.3149 9.6041 27.2892 9.72286 27.2677 9.84601C27.2544 9.92458 27.2458 10.0039 27.242 10.0835C27.2397 10.1113 27.2397 10.1393 27.242 10.1671C27.2314 10.2797 27.2314 10.3931 27.242 10.5058L27.4007 10.3122L27.4308 10.2771L27.5981 10.0615L27.8255 9.74925C27.8856 9.66568 27.9499 9.57771 28.01 9.48534L28.1344 9.29621C28.3147 9.01471 28.5035 8.70242 28.688 8.36374L28.8167 8.12183L28.9197 7.9151C28.9754 7.80074 29.0312 7.68198 29.0827 7.56322C29.2481 7.19126 29.3914 6.80936 29.5118 6.41963C29.6405 6.01497 29.7735 5.60592 29.8851 5.17927C29.9237 5.03412 29.958 4.89337 29.9838 4.73943C30.0095 4.58548 30.0224 4.5415 30.0395 4.44033C30.0567 4.33917 30.0395 4.33917 30.0395 4.29079C30.0395 4.2424 30.0395 4.18962 30.061 4.13684L30.0052 4.17643C29.9549 4.21995 29.9076 4.26698 29.8636 4.31718" fill="#E5E4D9"/>
</svg>
