<svg width="107" height="12" viewBox="0 0 107 12" fill="none" xmlns="http://www.w3.org/2000/svg">
<path d="M60.6537 5.47631C60.4806 5.25091 60.2943 5.03646 60.0959 4.83414C59.4624 4.18222 58.7095 3.66513 57.8803 3.31262C57.0511 2.9601 56.1622 2.77912 55.2645 2.78007C56.1619 2.78184 57.0508 2.60166 57.8799 2.24989C58.7091 1.89812 59.4622 1.38172 60.0959 0.730398C60.2933 0.527068 60.4795 0.312683 60.6537 0.0882263H49.8797C50.4508 0.833078 51.1638 1.45112 51.9751 1.90479C52.7865 2.35846 53.6794 2.6383 54.5995 2.72729C54.3729 2.75217 54.1451 2.76392 53.9173 2.76248C53.0182 2.76888 52.1268 2.5926 51.2946 2.24381C50.4624 1.89503 49.7059 1.38065 49.0687 0.730398C48.8714 0.527068 48.6852 0.312683 48.5109 0.0882263H46.4085V5.47631H60.6537Z" fill="#494949"/>
<path d="M106.427 0.0882263H61.6492V5.47631H106.427V0.0882263Z" fill="#494949"/>
<path d="M45.4044 0.0883918C45.149 0.520405 44.8436 0.919162 44.4948 1.27597C43.325 2.47362 41.7393 3.14634 40.086 3.14634C38.4327 3.14634 36.8471 2.47362 35.6773 1.27597C35.54 1.13962 35.4156 0.99447 35.2954 0.836127C36.4903 1.85804 38.0148 2.38495 39.5693 2.31333C41.1239 2.24171 42.5961 1.57674 43.6967 0.449064C43.8168 0.325907 43.9284 0.20275 44.0357 0.0751953H31.1635V5.47648H36.8744C36.7757 5.39731 36.6813 5.31374 36.5869 5.22577C35.3516 4.09932 34.5597 2.54939 34.3601 0.866916C34.8396 2.22086 35.7151 3.39012 36.867 4.2151C38.0188 5.04008 39.391 5.48058 40.7962 5.47648H45.413V0.0883918H45.4044Z" fill="#494949"/>
<path d="M26.8985 6.49681C25.4931 6.49431 24.1211 6.93595 22.9694 7.76159C21.8177 8.58723 20.9423 9.75671 20.4624 11.1108C20.669 9.42338 21.4701 7.8716 22.715 6.74752C22.8094 6.65955 22.9038 6.58038 23.0025 6.49681H15.9228V11.8893H30.168C30.0608 11.7617 29.9535 11.6386 29.8333 11.5198C28.7336 10.3897 27.2611 9.7223 25.7055 9.64904C24.15 9.57578 22.624 10.1019 21.4278 11.124C21.5479 10.9788 21.6724 10.8381 21.8097 10.6841C22.9007 9.56135 24.36 8.89452 25.904 8.81323C27.4479 8.73194 28.9662 9.242 30.1637 10.2443V7.32811C29.1849 6.78636 28.0923 6.49655 26.98 6.48361L26.8985 6.49681Z" fill="#494949"/>
<path d="M103.179 6.49681C101.774 6.49431 100.402 6.93595 99.2501 7.76159C98.0984 8.58723 97.223 9.75671 96.743 11.1108C96.941 9.42746 97.7312 7.87602 98.9656 6.74752C99.06 6.65955 99.1587 6.58038 99.2531 6.49681H92.1863V11.8893H106.427C106.324 11.7617 106.213 11.6386 106.097 11.5198C104.997 10.3915 103.525 9.72574 101.97 9.6533C100.416 9.58087 98.891 10.107 97.6956 11.1284C97.8157 10.9832 97.9402 10.8425 98.0732 10.6885C99.1647 9.56664 100.624 8.90043 102.168 8.81916C103.711 8.73788 105.229 9.24734 106.427 10.2487V7.32811C105.45 6.78705 104.359 6.49726 103.248 6.48361L103.179 6.49681Z" fill="#494949"/>
<path d="M45.4044 6.49689C45.1477 6.92932 44.8424 7.32938 44.4948 7.68886C43.325 8.88652 41.7393 9.55923 40.086 9.55923C38.4327 9.55923 36.8471 8.88652 35.6773 7.68886C35.54 7.54811 35.4156 7.40736 35.2954 7.24902C36.4867 8.27531 38.0096 8.80743 39.5644 8.74068C41.1191 8.67393 42.5933 8.01315 43.6967 6.88835C43.8168 6.76959 43.9284 6.64204 44.0357 6.51448H31.1635V11.8894H45.4087V6.49689H45.4044Z" fill="#494949"/>
<path d="M20.2007 0.334605C21.432 1.46246 22.2231 3.00937 22.4275 4.68906C21.948 3.33511 21.0725 2.16585 19.9206 1.34088C18.7688 0.515898 17.3966 0.0753974 15.9914 0.0794961H15.9228V5.47638H26.1819C26.0832 5.39721 25.9888 5.31364 25.8945 5.22567C24.6591 4.09923 23.8672 2.5493 23.6676 0.866817C24.1471 2.22076 25.0226 3.39002 26.1745 4.215C27.3263 5.03998 28.6985 5.48048 30.1037 5.47638H30.1723V0.0882932H19.9132C20.0119 0.167465 20.1063 0.251034 20.2007 0.334605Z" fill="#494949"/>
<path d="M65.9227 6.74761C67.1565 7.87717 67.9479 9.42778 68.1496 11.1109C67.6697 9.7568 66.7943 8.58732 65.6426 7.76168C64.4909 6.93604 63.1189 6.4944 61.7135 6.4969H61.6449V11.8894H71.904C71.8053 11.8102 71.7109 11.7266 71.6165 11.6387C70.3811 10.5122 69.5893 8.9623 69.3896 7.27982C69.8713 8.63234 70.7473 9.80017 71.8987 10.6248C73.0501 11.4494 74.4212 11.8909 75.8257 11.8894H75.8944V6.4969H65.6224C65.7339 6.58047 65.8283 6.65964 65.9227 6.74761Z" fill="#494949"/>
<path d="M14.9316 0.0882263H0.686401V5.47631C2.0835 5.47049 3.44522 5.02537 4.58772 4.20106C5.73022 3.37675 6.59849 2.21294 7.07531 0.86675C6.87283 2.54958 6.08156 4.09994 4.84841 5.23C4.75402 5.31357 4.65962 5.39714 4.56093 5.47631H11.0571C10.9584 5.39714 10.864 5.31357 10.7696 5.23C9.53968 4.0991 8.75279 2.54835 8.55561 0.86675C9.03242 2.21294 9.90069 3.37675 11.0432 4.20106C12.1857 5.02537 13.5474 5.47049 14.9445 5.47631V0.0882263H14.9316Z" fill="#494949"/>
<path d="M8.55561 11.1064C8.75376 9.42446 9.5441 7.87449 10.7782 6.7476C10.8726 6.65963 10.9713 6.58046 11.0657 6.49689H0.686401V11.8894H14.9316V6.49689C13.5373 6.5079 12.1795 6.95524 11.0401 7.77903C9.90058 8.60283 9.03376 9.76376 8.55561 11.1064Z" fill="#494949"/>
<path d="M60.6537 6.49689H46.4085V11.8894C47.805 11.881 49.1656 11.4349 50.3076 10.611C51.4497 9.787 52.3185 8.6246 52.7974 7.27981C52.5958 8.96168 51.8043 10.511 50.5705 11.6387C50.4761 11.7266 50.3817 11.8102 50.283 11.8894H56.7792C56.6805 11.8102 56.5861 11.7266 56.4917 11.6387C55.2563 10.5122 54.4645 8.96229 54.2648 7.27981C54.7437 8.6246 55.6125 9.787 56.7546 10.611C57.8966 11.4349 59.2572 11.881 60.6537 11.8894V6.49689Z" fill="#494949"/>
<path d="M91.1565 6.49689C90.8983 6.92942 90.5916 7.32946 90.2426 7.68886C89.0728 8.88652 87.4872 9.55923 85.8339 9.55923C84.1806 9.55923 82.5949 8.88652 81.4251 7.68886C81.2921 7.54811 81.1634 7.40736 81.0433 7.24902C82.2357 8.27466 83.7591 8.80631 85.3143 8.73957C86.8695 8.67284 88.3442 8.01255 89.4488 6.88835C89.5647 6.76959 89.6762 6.64204 89.7835 6.51448H76.9113V11.8894H82.6137C82.515 11.8102 82.4206 11.7266 82.3262 11.6387C81.0924 10.511 80.3009 8.96168 80.0993 7.27981C80.581 8.63233 81.457 9.80016 82.6084 10.6248C83.7598 11.4494 85.1308 11.8909 86.5354 11.8894H91.1651V6.49689H91.1565Z" fill="#494949"/>
</svg>
