<svg width="240" height="206" viewBox="0 0 240 206" fill="none" xmlns="http://www.w3.org/2000/svg">
<path d="M239.241 60.2709C239.297 60.3902 239.346 60.5094 239.395 60.6287C239.451 59.6425 239.371 58.6533 239.157 57.689C238.8 55.9841 237.757 54.7352 236.671 53.4793C235.502 52.0761 234.255 50.8413 232.469 50.3431C232.418 50.292 232.356 50.2535 232.287 50.2309C232.021 50.1132 231.729 50.0649 231.44 50.0906L231.531 50.1537L231.44 50.0906C230.739 49.6205 229.941 49.8661 229.192 49.7187C227.677 49.4685 226.135 49.4354 224.612 49.6205C223.596 49.7187 222.567 50.28 221.516 49.7327C221.468 49.7062 221.414 49.6916 221.359 49.6902C221.304 49.6888 221.25 49.7006 221.2 49.7247C221.151 49.7487 221.108 49.7843 221.075 49.8285C221.042 49.8726 221.021 49.924 221.012 49.9783C220.97 50.2449 221.236 50.301 221.432 50.3642C222.418 50.6152 223.443 50.6723 224.45 50.5326C225.001 50.4472 225.565 50.5537 226.047 50.8343C227.753 50.8261 229.458 50.9198 231.153 51.1149V51.1149C232.437 51.5753 233.647 52.2205 234.745 53.0303C235.874 53.8793 236.784 54.9858 237.4 56.2577C238.108 57.9586 238.451 59.7896 238.408 61.632C238.408 62.9861 237.946 64.2209 237.827 65.533C237.463 65.7925 237.364 66.2346 237.084 66.5783C237.084 66.7397 237.084 66.9081 237.028 67.0695C236.377 67.9044 235.999 68.9498 235.158 69.6514C234.667 70.0698 234.259 70.5767 233.954 71.1458C233.707 71.597 233.385 72.0027 233.001 72.3456C232.348 72.9578 231.751 73.6269 231.216 74.3451C230.839 74.812 230.398 75.223 229.906 75.5659C229.206 76.0571 229.01 75.9729 228.778 75.1309C228.379 73.6506 228.001 72.1631 227.616 70.6757L226.762 68.0728C226.6 67.6378 226.432 67.2098 226.271 66.7748C226.209 65.7406 225.871 64.7421 225.291 63.8842V63.8842C225.186 63.5544 225.228 63.1826 225.004 62.8809C224.988 62.7102 224.957 62.5412 224.913 62.3757C223.904 59.8078 222.917 57.2259 221.866 54.658C221.654 53.8302 221.316 53.0399 220.865 52.3147C220.712 51.14 220.166 50.0518 219.317 49.2276V49.2276C219.323 49.0075 219.265 48.7904 219.149 48.6032C219.125 48.5489 219.089 48.5009 219.044 48.4628V48.4628C217.917 46.7118 216.902 44.891 216.004 43.0113C214.996 41.0188 213.763 39.1736 212.685 37.2301C212.149 36.2289 211.52 35.28 210.808 34.3956C210.444 33.8624 210.108 33.3362 209.695 32.824C208.404 31.0243 207.001 29.3089 205.493 27.6882C204.478 26.5384 203.365 25.4796 202.166 24.524V24.524C201.739 24.2365 201.379 23.861 201.109 23.4225C200.73 22.7494 200.212 22.1656 199.589 21.7105C197.313 20.3073 195.499 18.3428 193.251 16.9326C191.885 16.0696 190.534 15.1786 189.161 14.3226C187.599 13.3474 185.813 12.7931 184.259 11.8319C182.508 10.7444 180.477 10.2673 178.747 9.15175C178.59 9.08521 178.425 9.03809 178.257 9.01143C176.737 8.44312 175.077 8.30982 173.621 7.57313C172.713 7.16163 171.777 6.81693 170.819 6.54177C169.279 6.01556 167.647 5.88927 166.078 5.46831C165.915 5.28816 165.715 5.1463 165.491 5.05291C165.267 4.95951 165.025 4.91688 164.783 4.92807C164.755 4.90536 164.724 4.88648 164.691 4.87194C164.407 4.70889 164.08 4.63326 163.753 4.65444V4.65444C162.836 4.46501 161.897 4.33872 161.001 4.06509C158.578 3.36348 156.021 3.27929 153.605 2.53559C153.354 2.48563 153.098 2.45746 152.842 2.45139C150.419 2.22688 147.94 2.26898 145.608 1.55334C145.402 1.48382 145.187 1.44828 144.97 1.44809C142.911 1.50422 140.922 0.851728 138.856 0.914873C137.099 0.971001 135.355 0.521972 133.618 0.451812C130.817 0.339554 128.057 0.409715 125.277 0.374635C124.514 0.374635 123.75 0.192217 122.987 0.199233C120.123 0.199233 117.251 0.360603 114.394 0.27641C112.671 0.220281 110.976 0.27641 109.268 0.395683C108.567 0.437779 107.902 0.486892 107.216 0.493908C103.917 0.550037 100.647 0.963985 97.362 1.23761C93.8604 1.5393 90.3587 2.26898 86.787 2.45139C85.7585 2.45761 84.7349 2.59435 83.7406 2.85833V2.85833C83.0585 2.80048 82.3715 2.84541 81.7026 2.99163C78.681 3.58341 75.623 3.97018 72.5493 4.14929C71.6054 4.23732 70.6691 4.39443 69.748 4.61936C67.2899 5.17363 64.8457 5.69282 62.3666 6.23306C61.2375 5.97161 60.0567 6.04722 58.97 6.45056C57.798 6.85255 56.5937 7.15301 55.3703 7.34862C54.3537 7.49936 53.3575 7.76533 52.4009 8.14143C51.6574 8.46439 50.8724 8.68165 50.0688 8.78691C49.1584 8.86409 48.374 9.36223 47.4706 9.44642C47.2395 9.44642 47.0224 9.69199 46.8193 9.83932C46.6162 9.98666 46.4762 10.134 46.5322 10.3725C46.5882 10.6111 46.8473 10.6321 47.0504 10.6181C47.7355 10.6478 48.4215 10.5817 49.0884 10.4217C51.6306 9.63586 54.2918 9.47449 56.883 8.90619C59.7964 8.27474 62.8358 8.30982 65.6722 7.25039C65.6929 7.1746 65.707 7.09712 65.7142 7.01886C66.8487 7.15918 67.8852 6.65402 68.9777 6.49265L81.2474 4.71759C81.5545 4.62132 81.8814 4.60827 82.1951 4.67975C82.5088 4.75123 82.798 4.90469 83.0333 5.12452C83.3624 5.48234 83.8177 5.38411 84.2308 5.43323C85.9887 5.27887 87.6764 4.73162 89.4203 4.55622C93.3771 4.17033 97.3129 3.61606 101.326 3.43365C108.798 3.09687 116.243 2.4093 123.736 2.68292C129.892 2.91446 136.048 3.04776 142.176 3.71429C142.608 3.80554 143.054 3.80554 143.486 3.71429C143.683 3.75827 143.886 3.77713 144.088 3.77042H144.256C144.577 3.97805 144.952 4.08773 145.334 4.08614C150.762 5.01226 156.281 5.22976 161.652 6.63999C165.07 7.53805 168.55 8.25369 171.933 9.29909C174.958 10.2253 177.926 11.3311 180.82 12.6107C185.428 14.6804 189.924 16.9536 193.944 20.0477C196.889 22.3243 199.656 24.8222 202.222 27.5198C202.747 28.0741 203.181 28.9231 204.176 28.7196C204.1 28.8944 204.084 29.0894 204.129 29.2744C204.175 29.4595 204.28 29.6244 204.428 29.7439C205.717 31.1472 206.921 32.6626 208.175 34.1079C208.26 34.2377 208.38 34.3408 208.522 34.4053C208.663 34.4698 208.819 34.4932 208.973 34.4728C208.693 35.0341 209.015 35.4761 209.309 35.9321C210.248 37.3353 211.046 38.8859 211.936 40.3522C214.226 44.1269 216.243 48.0699 218.197 52.013C219.639 54.9457 220.83 57.9696 222.083 60.9655C223.22 63.6496 224.156 66.4145 224.885 69.2374C225.172 70.339 225.529 71.4475 225.886 72.535C226.383 74.0715 227.21 75.6782 226.425 77.348C226.295 77.4397 226.173 77.543 226.061 77.6567C224.955 78.5969 223.666 79.2775 222.56 80.2316C220.586 81.8782 218.428 83.2908 216.131 84.4413C213.427 85.8445 210.696 87.1425 207.902 88.3142C206.249 89.0158 204.771 90.1103 202.936 90.3488C201.957 90.4136 200.986 90.5734 200.037 90.8259C198.09 91.5275 196.339 90.9873 194.581 90.2225C194.525 90.1524 194.483 90.0752 194.427 89.998C194.322 89.5139 194.476 88.9737 194.105 88.5527C194.033 88.4695 193.934 88.4148 193.825 88.3984C194.49 86.2215 195.58 84.199 197.033 82.4487C197.53 81.8594 197.873 81.1578 198.314 80.5263C198.955 79.5211 199.657 78.5557 200.415 77.6357C202.163 75.7009 203.647 73.5422 204.827 71.216V71.216C204.913 71.038 204.974 70.8492 205.009 70.6547C205.409 69.1673 205.009 68.4025 203.609 67.4483C202.79 66.9841 201.896 66.6682 200.968 66.5152C199.15 66.0432 197.279 65.8074 195.401 65.8136C193.265 65.8136 191.136 66.0171 189.007 66.1293C188.152 66.1552 187.3 66.2444 186.458 66.3959C185.712 66.5903 184.945 66.687 184.175 66.6836C182.116 66.5854 180.092 67.0625 178.054 67.2589C176.968 67.3641 175.82 67.1817 174.769 67.6308C173.635 67.3571 173.544 67.1817 174.069 66.2276C174.384 65.6663 174.692 65.112 175.049 64.5788C175.757 63.6014 176.105 62.4093 176.037 61.204C175.988 59.9208 175.581 58.6769 174.862 57.614C174.142 56.551 173.14 55.7116 171.968 55.1913C170.392 54.4265 170.392 54.4335 171.162 52.9601C172.434 51.8301 173.647 50.6358 174.797 49.3819V49.3819C175.336 48.8838 176.023 48.5119 176.261 47.7402C177.381 46.7369 178.152 45.4249 179.181 44.3444C180.189 43.3609 181.035 42.2244 181.688 40.9767C181.927 40.4785 182.186 39.9944 182.438 39.5033C182.487 39.4816 182.529 39.4448 182.557 39.3981C182.629 39.314 182.682 39.2153 182.712 39.1086C182.742 39.002 182.749 38.8901 182.732 38.7806V38.7806C182.855 38.265 182.809 37.7233 182.599 37.2364C182.389 36.7495 182.028 36.3436 181.569 36.0795C179.805 35.3217 178.068 34.5149 176.044 34.5991C175.455 34.6894 174.861 34.7386 174.265 34.7464C172.731 34.592 171.205 34.7464 169.664 34.6692C168.123 34.592 166.442 34.8376 164.825 34.8657C163.207 34.8937 161.484 35.4691 159.775 35.5673C158.851 35.6234 157.982 35.9602 156.974 35.7216C156.155 35.5252 155.307 36.0233 154.467 36.1216C151.539 36.4794 148.675 37.195 145.741 37.4757C145.618 37.5096 145.5 37.5591 145.39 37.623C144.13 37.5739 142.89 38.1632 141.616 37.7633C139.76 38.2755 137.799 38.1352 135.957 38.7666C134.473 39.1678 132.914 39.2063 131.412 38.8789C130.312 38.6254 129.176 38.5708 128.057 38.7175C127.586 38.7394 127.121 38.6018 126.738 38.3269C126.354 38.052 126.074 37.6558 125.942 37.202V37.202L128.001 34.8867C129.052 34.1851 129.745 33.1187 130.803 32.4381C132.82 31.091 134.752 29.6317 136.685 28.1794C138.66 26.6126 140.785 25.2471 143.03 24.103C143.226 24.0188 143.408 23.9052 143.57 23.7662C144.872 22.5991 146.355 21.6513 147.961 20.9598C150.699 19.5566 153.521 18.3779 156.309 17.101C156.906 17.0801 157.494 16.9418 158.038 16.694C158.35 16.4753 158.707 16.3296 159.083 16.2676C159.459 16.2057 159.844 16.2291 160.209 16.3362C160.707 16.5256 161.379 15.7539 161.155 15.3399C160.847 14.7646 160.419 14.1542 159.754 14.1753C158.452 14.2244 157.114 14.3156 156.098 15.3399C155.341 15.5311 154.606 15.804 153.906 16.1538C152.219 16.9957 150.65 18.0832 148.934 18.8339C145.103 20.5108 141.77 22.9945 138.31 25.2747C135.922 26.8393 133.555 28.467 131.265 30.186C130.719 30.5999 130.228 31.084 129.682 31.498C127.911 32.915 126.27 34.4882 124.78 36.1987C124.503 36.4409 124.298 36.7555 124.189 37.1074C124.081 37.4593 124.072 37.8346 124.164 38.1913C124.283 38.7245 124.598 39.1385 125.144 38.8929C126.047 38.4579 126.587 39.0332 127.007 39.5594C127.215 39.8306 127.494 40.0393 127.812 40.163C128.131 40.2867 128.477 40.3206 128.814 40.261C129.45 40.2014 130.09 40.2014 130.726 40.261C131.703 40.3733 132.69 40.3733 133.667 40.261C135.649 39.9593 137.659 39.8752 139.62 39.4261C140.617 39.2201 141.634 39.1283 142.652 39.1525C144.396 39.1525 146.021 38.6544 147.709 38.4509C147.96 38.386 148.182 38.2376 148.339 38.0299V38.0299C149.739 37.8545 151.14 37.7142 152.492 37.4967C155.153 37.0757 157.849 37.0407 160.511 36.6969C161.598 36.4773 162.697 36.3227 163.802 36.2338C166.484 36.2338 169.146 35.8409 171.849 35.9111C174.301 35.9714 176.746 36.22 179.16 36.6548C180.171 36.8361 181.1 37.3263 181.821 38.058C181.392 38.4193 181.11 38.9262 181.03 39.4823C179.986 41.4643 178.676 43.2937 177.136 44.9197C176.023 45.9529 174.993 47.0719 174.055 48.2664V48.2664C173.046 49.4872 171.772 50.4273 170.686 51.5639C170.479 51.6214 170.287 51.7278 170.129 51.8742C169.971 52.0207 169.85 52.203 169.776 52.4059C169.535 52.8619 169.221 53.2745 168.844 53.6267C168.687 53.8375 168.459 53.9851 168.202 54.043C167.945 54.1009 167.677 54.0652 167.444 53.9424C166.648 53.6171 165.796 53.4525 164.937 53.4583C160.526 53.3193 156.114 53.6818 151.784 54.5388C150.944 54.6931 150.181 55.1562 149.305 55.1913C146.749 55.1913 144.466 56.4331 141.966 56.7558C140.799 57.0108 139.659 57.3773 138.562 57.8503C138.48 57.8773 138.411 57.932 138.365 58.005C138.319 58.0779 138.299 58.1647 138.31 58.2503C138.31 58.4537 138.499 58.5309 138.674 58.5449C139.185 58.5774 139.697 58.518 140.187 58.3695C141.077 58.0684 141.994 57.8546 142.925 57.7311C144.801 57.6292 146.647 57.2167 148.388 56.5103C148.71 56.4036 149.044 56.3399 149.382 56.3208C150.573 56.1665 151.763 56.0753 152.947 55.8858C156.144 55.3215 159.38 55.0118 162.625 54.9597C163.768 55.0718 164.918 55.093 166.064 55.0229C166.248 54.9812 166.44 54.9996 166.613 55.0753C166.786 55.1511 166.93 55.2802 167.024 55.4438L166.575 56.0121C165.301 56.9032 164.369 58.117 163.242 59.1974C162.114 60.3013 161.168 61.5778 160.44 62.9791C160.384 63.0146 160.341 63.0694 160.321 63.1335C160.203 63.3138 160.149 63.5288 160.167 63.7439C160.035 64.074 159.975 64.4289 159.993 64.7843C160.011 65.1397 160.105 65.487 160.269 65.8024C160.434 66.1178 160.664 66.3937 160.945 66.6113C161.226 66.8288 161.551 66.9827 161.897 67.0625C162.179 67.1543 162.441 67.2996 162.668 67.4904C163.438 68.0823 164.343 68.4751 165.301 68.6341C166.869 68.5569 168.424 69.027 169.993 68.7603C170.138 68.7231 170.291 68.7431 170.422 68.8163C170.552 68.8894 170.649 69.0101 170.693 69.1533C170.331 69.3888 170.047 69.7288 169.881 70.1285C169.762 70.493 169.513 70.8005 169.181 70.9915C167.689 72.0228 166.736 73.5874 165.497 74.8573C164.257 76.1272 162.822 77.6076 161.393 78.8144C159.488 80.4211 157.254 81.6208 155.489 83.459C155.316 83.5828 155.128 83.6842 154.929 83.7607C153.782 84.2986 152.675 84.9176 151.616 85.613C150.1 86.7992 148.435 87.7827 146.665 88.5387C145.957 88.8485 145.271 89.2072 144.613 89.6121C144.015 89.9388 143.392 90.218 142.75 90.447C141.756 90.847 140.467 90.5242 139.753 91.6468C139.697 91.731 139.431 91.724 139.27 91.6959C138.506 91.5766 137.757 91.4293 137.001 91.296C136.873 91.2765 136.757 91.2134 136.672 91.1173C136.586 91.0213 136.536 90.8984 136.531 90.7698C137.407 89.2824 138.275 87.788 139.172 86.3146C139.521 85.7249 139.675 85.0399 139.613 84.3571C140.229 83.7397 139.977 83.0451 139.655 82.4557C138.989 81.27 138.891 80.2597 139.858 79.1161C140.502 78.3583 140.698 77.2358 141.259 76.4149C141.933 75.3313 142.474 74.1699 142.869 72.956C143.072 72.4368 143.247 72.0439 143.822 71.9036C144.522 71.7282 144.669 71.1107 144.865 70.5494C144.908 70.4482 144.912 70.3346 144.875 70.2308C144.839 70.127 144.766 70.0405 144.669 69.9882C144.576 69.9342 144.468 69.91 144.36 69.9188C144.253 69.9276 144.15 69.9689 144.067 70.0373C143.923 70.127 143.803 70.2496 143.717 70.3951C143.2 71.2815 142.572 72.0974 141.847 72.8227C140.572 74.2259 140.103 76.1483 139.045 77.6778C138.422 78.5688 138.072 79.6423 137.274 80.4211C136.626 79.8021 135.773 79.4448 134.879 79.4178C133.612 79.239 132.323 79.3225 131.09 79.6633V79.6633C130.198 79.3683 129.262 79.2306 128.323 79.2564C125.903 79.4586 123.472 79.4891 121.047 79.3476C119.809 79.354 118.576 79.1863 117.384 78.8495C116.789 78.653 116.222 78.3233 116.278 77.6217C116.274 77.0149 116.493 76.428 116.894 75.9729C117.917 75.0538 118.169 73.6576 119.044 72.6613C119.198 72.4929 119.177 72.1842 119.24 71.9597C120.27 71.2019 120.816 70.0724 121.551 69.0831C123.729 66.1293 126.082 63.3089 128.071 60.2148C129.38 58.1582 130.403 55.9323 131.111 53.5986C131.287 53.1503 131.304 52.655 131.16 52.1954C130.396 50.0906 129.248 48.2734 126.993 47.4595C124.974 45.924 122.524 45.0626 119.99 44.9969C117.228 44.7235 114.442 44.8368 111.712 45.3337C110.885 45.502 109.996 45.2144 109.198 45.6494H108.959C107.542 45.5356 106.119 45.7969 104.834 46.4071V46.4071C101.613 47.1087 98.4825 48.119 95.345 49.0943C93.8814 49.5573 92.4877 50.2449 91.031 50.694C88.6989 51.3956 86.3948 52.1954 84.1188 53.0443C83.3624 53.325 82.3609 53.4372 81.8707 54.4896C83.3274 54.6861 84.588 54.9317 85.8416 53.9494C86.6733 53.3262 87.6284 52.8885 88.6429 52.6655C90.3797 52.2515 92.1445 51.8726 93.8463 51.3745C95.0019 51.0447 96.0103 50.3502 97.2149 50.1818C98.5329 50.0075 99.7919 49.5269 100.892 48.7786C101.43 48.5165 102.007 48.3413 102.6 48.2594C103.721 47.9507 104.926 48.0489 106.011 47.6981C107.227 47.2983 108.484 47.0348 109.758 46.9123V46.9123C110.458 46.9123 111.116 46.9123 111.796 46.8562C116.124 46.5194 120.438 46.372 124.661 47.6981C125.893 48.3646 127.252 48.7996 128.302 49.8029C129.493 50.9185 130.6 52.0551 129.654 53.8792C129.616 54 129.592 54.1248 129.584 54.2511C129.066 56.6085 127.651 58.5028 126.335 60.4323C125.876 60.979 125.469 61.566 125.116 62.1863C124.85 62.775 124.464 63.3009 123.981 63.7298C122.693 64.8945 121.88 66.424 120.9 67.7991L119.261 70.0864C118.585 70.5332 118.057 71.1704 117.742 71.9176C117.5 72.598 117.121 73.2213 116.628 73.7488C115.893 74.6231 115.374 75.6593 115.115 76.7727C114.142 79.074 115.115 80.0773 117.083 80.4351H117.209C119.555 81.0666 121.957 80.7578 124.332 80.8911C125.092 80.979 125.861 80.979 126.622 80.8911C128.211 80.6245 129.836 80.8912 131.433 80.5965C131.901 80.5597 132.372 80.5856 132.834 80.6736C133.975 80.7719 135.082 81.1718 136.244 81.1157L136.748 81.8945C135.975 83.1815 135.366 84.5603 134.935 85.9989C134.628 86.2554 134.424 86.6141 134.36 87.0092V87.0092C134.292 87.0744 134.238 87.1527 134.2 87.2396C134.163 87.3264 134.144 87.4198 134.143 87.5143C134.051 87.6273 133.983 87.7575 133.942 87.8972C133.901 88.037 133.889 88.1835 133.905 88.3282V88.3282C133.562 89.3175 133.415 90.2927 134.178 91.1767V92.18C134.036 92.2613 133.916 92.376 133.828 92.5141C133.741 92.6522 133.688 92.8096 133.674 92.9728V92.9728C132.175 95.2881 130.656 97.5824 128.513 99.3855C127.893 99.8475 127.368 100.424 126.965 101.083C126.708 101.524 126.368 101.91 125.963 102.22C125.535 102.349 125.17 102.635 124.941 103.02C124.752 103.059 124.576 103.143 124.428 103.265C124.279 103.388 124.162 103.544 124.086 103.721V103.721L123.862 103.974C123.379 104.458 122.903 104.949 122.413 105.426C120.886 106.921 119.121 108.156 117.763 109.825C117.569 110.059 117.311 110.23 117.02 110.317C116.23 110.646 115.472 111.05 114.758 111.523C113.932 111.958 113.266 112.667 112.3 112.877C111.334 113.088 110.857 113.684 110.976 114.182C111.095 114.681 111.754 114.884 112.762 114.688C112.762 114.688 112.832 114.638 112.867 114.617C115.297 114.274 117.77 114.028 119.548 112.029C119.93 112.067 120.315 112.067 120.697 112.029C121.74 111.79 122.98 111.853 123.407 110.499C125.064 109.802 126.768 109.223 128.506 108.766C128.801 108.808 129.1 108.808 129.395 108.766C131.713 108.142 134.059 108.766 136.398 108.633C136.612 108.627 136.824 108.675 137.015 108.773C138.695 109.594 140.425 110.338 141.651 111.846C142.171 112.683 142.493 113.629 142.592 114.611C142.69 115.593 142.562 116.584 142.218 117.508C141.895 118.466 141.513 119.403 141.076 120.314C140.586 121.416 139.676 122.293 139.263 123.409C138.815 124.468 138.198 125.447 137.435 126.306C136.434 127.472 135.499 128.692 134.633 129.962C134.094 130.782 133.107 131.077 132.651 131.933C131.097 133.678 129.54 135.427 127.98 137.181C127.957 137.215 127.94 137.253 127.931 137.293V137.293L127.721 137.518C127.479 137.634 127.29 137.837 127.189 138.086L126.965 138.304C126.482 138.535 126.033 138.795 125.935 139.391C125.694 139.632 125.475 139.895 125.284 140.177C124.845 140.895 124.272 141.522 123.596 142.022C122.096 143.155 120.673 144.388 119.338 145.713C118.983 146.086 118.602 146.433 118.197 146.751C116.663 148.035 115.255 149.466 113.631 150.673C112.163 151.892 110.774 153.202 109.471 154.595V154.595C108.553 155.416 107.545 156.104 106.669 157.023C105.751 157.972 104.748 158.833 103.672 159.598C102.509 160.468 101.354 161.33 100.282 162.313C98.9819 163.535 97.6116 164.681 96.1784 165.744C93.8948 167.386 91.7192 169.174 89.6653 171.097C89.1581 171.557 88.6069 171.966 88.0196 172.318C86.6615 173.204 85.3631 174.179 84.1328 175.236C81.7844 177.088 79.3264 178.796 76.7723 180.351C74.6713 181.754 72.3042 182.701 70.0702 183.859C69.0787 184.51 68.0047 185.024 66.8767 185.389C66.2422 185.478 65.6182 185.631 65.0138 185.845C63.8583 186.357 62.7448 186.841 61.4702 186.181C61.148 186.013 60.7699 186.287 60.6718 186.645C60.5738 187.002 60.7628 187.304 61.099 187.465C61.4153 187.607 61.763 187.662 62.1075 187.627C64.4601 187.492 66.7688 186.931 68.9216 185.971C70.7775 185.122 72.5914 184.168 74.3982 183.165C76.8003 181.86 79.0904 180.358 81.4015 178.92C83.1663 177.79 84.742 176.394 86.4228 175.138C87.6204 174.247 88.874 173.412 90.0225 172.451C92.2776 170.55 94.4976 168.599 96.8437 166.796C99.3089 164.895 101.627 162.797 104.022 160.797C104.273 160.635 104.544 160.506 104.827 160.411L105.038 160.208C107.202 159.148 108.735 157.296 110.563 155.802L110.605 155.633C110.784 155.476 110.927 155.282 111.025 155.065C111.509 154.581 111.726 153.922 112.335 153.494C113.815 152.477 115.22 151.354 116.537 150.133C118.197 148.477 120.039 146.99 121.663 145.313C123.022 143.91 124.598 142.738 125.984 141.349C126.482 140.851 126.727 140.184 127.238 139.749C128.288 138.858 129.115 137.756 130.123 136.816C130.489 136.358 130.894 135.933 131.335 135.546C132.117 134.904 132.744 134.094 133.17 133.175V133.175L134.199 132.123C134.509 131.972 134.786 131.762 135.013 131.503C135.241 131.243 135.414 130.941 135.523 130.614V130.614C137.281 128.593 139.08 126.601 140.313 124.18C141.16 122.504 142.316 120.995 142.932 119.199C143.33 118.293 143.646 117.354 143.878 116.393C144.354 113.537 143.009 111.404 141.188 109.44C141.144 109.299 141.071 109.17 140.975 109.059C140.879 108.948 140.761 108.858 140.628 108.794C138.149 107.124 135.306 107.005 132.469 106.809C131.307 106.731 130.214 107.23 129.066 107.173C128.919 107.138 128.768 107.127 128.618 107.138C128.497 107.09 128.369 107.066 128.239 107.068C127.409 107.209 126.589 107.41 125.788 107.672C124.042 108.142 122.343 108.771 120.711 109.552C120.902 109.351 121.118 109.176 121.355 109.033C122.725 108.013 123.994 106.864 125.144 105.602C125.41 105.3 125.767 104.998 125.634 104.591C125.659 104.542 125.68 104.49 125.697 104.437C125.69 104.381 125.69 104.325 125.697 104.269H125.879C126.159 103.848 126.643 103.567 126.741 103.027C127.764 102.251 128.644 101.301 129.339 100.22C131.23 98.7751 132.343 96.7124 133.695 94.8181C133.899 94.7198 134.077 94.5734 134.212 94.3913C134.348 94.2092 134.437 93.9969 134.472 93.7727C134.826 93.4096 135.088 92.9669 135.236 92.4817C136.027 92.1449 136.818 91.7801 137.603 92.5238C137.672 92.5734 137.751 92.6078 137.834 92.6247C137.917 92.6417 138.003 92.6407 138.086 92.622C139.172 92.3835 140.327 92.5168 141.357 92.0257C142.014 91.72 142.693 91.4621 143.388 91.2539C145.312 90.6619 147.143 89.8022 148.829 88.7C151.462 86.939 154.369 85.613 156.799 83.4941C157.768 82.6603 158.803 81.9071 159.894 81.242C161.548 80.0935 163.082 78.782 164.474 77.327C166.456 75.4467 168.291 73.419 170.189 71.4545C170.555 71.1536 170.835 70.7616 171.001 70.3179V70.3179C171.176 70.1314 171.34 69.9346 171.492 69.7286C171.619 69.4336 171.829 69.1822 172.096 69.0053C172.364 68.8283 172.677 68.7334 172.997 68.7323C176.653 68.8516 180.232 68.1499 183.838 67.7641C186.605 67.4624 189.364 67.1888 192.137 66.9993C194.911 66.8099 197.586 67.3291 200.317 67.3712C200.831 67.3899 201.33 67.5501 201.76 67.8342C202.391 68.2747 203.073 68.6375 203.791 68.9147C204.211 69.0761 204.302 69.3146 204.099 69.7075C204.014 69.9023 203.939 70.1013 203.875 70.3039V70.3039C203.757 70.6707 203.594 71.0218 203.392 71.3493C201.907 73.2015 200.982 75.4747 199.134 77.0604C198.622 77.395 198.26 77.9158 198.125 78.5127C198.02 79.9159 197.047 80.7859 196.129 81.6489C195.751 81.9813 195.406 82.3502 195.1 82.7504C194.2 84.0314 193.52 85.4543 193.09 86.9601C192.98 86.9543 192.871 86.971 192.768 87.0092C192.206 87.9167 191.96 88.9848 192.067 90.0471C192.053 90.5005 192.18 90.9471 192.431 91.3245C192.682 91.7019 193.045 91.9913 193.468 92.152C195.219 92.7062 196.886 93.5552 198.741 93.7236C198.894 93.7176 199.046 93.7012 199.197 93.6744C200.17 93.5131 201.074 93.0711 201.998 92.8395C204.099 92.3344 206.074 91.6117 208.133 91.0785C208.322 90.9803 208.49 90.84 208.686 90.7487C214.718 88.1824 220.412 84.8835 225.641 80.9262C227.154 79.7475 227.826 80.0913 228.323 81.9576C228.4 82.2523 228.414 82.554 228.47 82.8486C228.708 84.1115 228.757 85.4025 228.968 86.6724C229.458 89.417 229.716 92.1983 229.738 94.9865C229.738 97.3439 229.584 99.7013 229.542 102.052C229.458 106.795 228.631 111.411 227.805 116.084C226.755 121.907 224.703 127.38 222.56 132.845C221.084 136.505 219.401 140.078 217.517 143.545C217.365 143.744 217.278 143.985 217.265 144.235C217.253 144.486 217.316 144.734 217.447 144.948C216.978 144.864 216.684 145.201 216.446 145.586C216.137 146.048 215.798 146.489 215.43 146.905C215.241 147.333 215.332 147.839 214.989 148.224C213.707 149.628 213.147 151.585 211.768 152.96C211.588 153.088 211.459 153.274 211.403 153.487C211.346 153.7 211.366 153.925 211.459 154.125C211.125 154.199 210.811 154.348 210.542 154.561C210.273 154.773 210.055 155.044 209.905 155.353C208.658 157.289 207.608 159.352 206.039 161.064C204.792 162.432 203.413 163.625 202.362 165.238C201.081 167.203 199.008 168.571 197.39 170.311C196.184 171.613 194.849 172.789 193.405 173.819C192.695 174.241 192.063 174.782 191.535 175.419C190.695 176.633 189.476 177.446 188.391 178.394C187.305 179.341 185.589 179.797 184.511 181.046C184.294 181.298 184.035 181.509 183.992 181.803C181.814 182.196 180.183 183.705 178.425 184.862C176.951 185.923 175.385 186.851 173.747 187.634C171.387 188.623 169.167 189.935 166.687 190.721C162.892 191.928 159.46 194.11 155.559 195.092C155.374 195.129 155.201 195.212 155.058 195.335C154.914 195.458 154.805 195.616 154.74 195.793C154.574 195.708 154.392 195.656 154.206 195.641C154.019 195.627 153.832 195.65 153.654 195.709C151.763 196.074 150.027 196.923 148.185 197.456C148.02 197.506 147.875 197.606 147.768 197.741C147.662 197.877 147.599 198.042 147.589 198.214C146.161 198.756 144.699 199.203 143.212 199.554C142.297 199.705 141.417 200.021 140.614 200.487C140.195 200.428 139.769 200.455 139.361 200.564L133.954 201.834C133.732 201.947 133.497 202.032 133.254 202.087C131.09 202.382 128.933 202.662 126.776 202.992C124.619 203.322 122.616 203.476 120.55 203.694C117.433 204.037 114.331 204.009 111.221 204.122C107.51 204.368 103.785 204.295 100.086 203.904C97.8872 203.609 95.6392 203.68 93.4542 203.202C92.8735 203.065 92.2837 202.968 91.6893 202.915C90.3681 202.801 89.06 202.566 87.7815 202.213C86.2285 201.76 84.65 201.399 83.0543 201.133C81.7481 200.928 80.4567 200.637 79.1885 200.263C78.5302 200.08 77.8789 199.863 77.2206 199.673C74.2226 198.837 71.2858 197.794 68.4314 196.551C66.0503 195.506 63.6762 194.446 61.3441 193.296C59.4089 192.398 57.5371 191.369 55.7415 190.216C54.7133 189.526 53.6367 188.912 52.52 188.377C51.4005 187.785 50.3198 187.122 49.2845 186.392C48.8259 186.279 48.4098 186.035 48.0869 185.69C47.562 185.193 46.9555 184.789 46.2941 184.498V184.498L46.0419 184.203C45.4816 183.71 44.8713 183.277 44.2211 182.912V182.912C44.2211 182.849 44.2211 182.786 44.1861 182.716C44.1898 182.517 44.1199 182.325 43.99 182.175C43.4157 181.944 42.8204 181.761 42.2462 181.537C42.1074 181.429 41.9827 181.304 41.875 181.165C41.547 181.083 41.2575 180.889 41.0556 180.618C40.943 180.465 40.7992 180.339 40.6336 180.247C40.4681 180.155 40.2849 180.099 40.0962 180.084V180.084L34.7036 175.489C33.8687 174.487 32.8946 173.611 31.8113 172.886C31.5701 172.756 31.3573 172.58 31.1853 172.366C31.0133 172.153 30.8856 171.908 30.8098 171.644C30.0546 171.096 29.4244 170.392 28.9609 169.581C28.9509 169.525 28.9272 169.471 28.8918 169.426C28.8563 169.381 28.8104 169.345 28.7579 169.322C27.8194 168.887 27.3572 167.919 26.7339 167.217C25.5084 166.002 24.4467 164.631 23.5754 163.141V163.141L22.574 162.334C22.5109 161.695 22.0137 161.38 21.5795 161.022L21.3484 160.706C21.2573 160.411 21.0601 160.161 20.7951 160.004V160.004C20.6271 159.829 20.466 159.647 20.2979 159.464C19.5275 157.675 18.26 156.202 17.2025 154.553C17.2089 154.367 17.1746 154.183 17.102 154.012C17.0294 153.841 16.9203 153.688 16.7823 153.564C16.478 153.282 16.2553 152.923 16.1379 152.525C16.1409 152.491 16.1367 152.457 16.1257 152.425C16.1147 152.393 16.0971 152.363 16.074 152.338C16.051 152.313 16.023 152.293 15.9918 152.279C15.9606 152.266 15.9269 152.259 15.8928 152.259C15.6622 152.058 15.4658 151.821 15.3116 151.557C14.5622 150.624 14.044 149.55 13.3787 148.568C12.995 147.775 12.5427 147.017 12.027 146.302V146.302V145.264C12.3492 144.485 12.1041 144.036 11.2497 143.952C10.5493 143.58 10.7244 142.675 10.2412 142.163C10.2724 142.13 10.2962 142.091 10.3108 142.049C10.3255 142.006 10.3306 141.961 10.326 141.916C10.3213 141.871 10.3069 141.828 10.2838 141.789C10.2607 141.751 10.2294 141.718 10.1922 141.692H9.94705C9.69493 140.83 9.44281 139.974 9.18369 139.111L9.08566 139.061L9.04364 138.732C9.0646 138.55 9.0646 138.366 9.04364 138.184C8.85892 137.422 8.62498 136.672 8.34331 135.939C7.07349 132.622 6.08943 129.202 5.40193 125.717C5.10079 124.005 4.00128 122.489 4.2674 120.658C4.30627 120.42 4.25036 120.175 4.11164 119.977C3.97291 119.779 3.76238 119.643 3.52505 119.599C3.04183 119.045 3.34996 118.343 3.18188 117.74C2.64963 115.922 2.72668 114.028 2.42554 112.183C2.36337 111.714 2.3919 111.238 2.50957 110.78C2.26502 110.379 2.16608 109.905 2.22944 109.44C2.22842 107.851 2.12549 106.265 1.9213 104.69C1.8002 104.059 1.75552 103.416 1.78823 102.774C1.90724 102.571 1.98408 102.345 2.01416 102.112C2.04424 101.878 2.02695 101.64 1.96332 101.413C1.81764 100.407 1.7381 99.392 1.72521 98.3752V98.3752V97.8771C1.72521 96.8247 2.08238 95.7723 1.86528 94.7269C1.86528 94.5865 1.97032 94.4111 2.03335 94.2498C3.06283 93.913 2.92277 93.2324 2.5586 92.4747C2.4273 92.4583 2.29814 92.4277 2.17341 92.3835L2.28546 92.2011C2.31937 92.2337 2.36455 92.2519 2.41154 92.2519C2.45852 92.2519 2.50368 92.2337 2.53759 92.2011C2.54795 89.7838 2.71639 87.3697 3.04183 84.9745L3.08384 84.4904C3.36705 84.1713 3.53479 83.766 3.56006 83.3398C3.82074 81.4495 4.18783 79.5756 4.65958 77.7269C4.73631 77.5282 4.77034 77.3155 4.75948 77.1028C4.74862 76.89 4.69311 76.6819 4.59656 76.4921V76.4921L4.84167 75.9308C5.04067 75.7043 5.1589 75.418 5.17782 75.1169C5.45886 73.8249 5.85738 72.5615 6.36838 71.3423C6.81946 70.347 7.18268 69.314 7.45388 68.2552V68.2552C7.47744 68.2217 7.49851 68.1865 7.51691 68.15C7.64417 67.8565 7.69247 67.5348 7.65698 67.2168V67.2168C8.43435 66.403 8.48336 65.1892 9.22571 64.3613C9.39912 64.3724 9.57107 64.3234 9.71264 64.2224C9.85421 64.1215 9.95678 63.9748 10.0031 63.807C10.2902 62.8037 10.9905 62.0179 11.4037 61.0988C13.2386 57.254 15.6057 53.7249 17.7067 50.0134C17.7067 49.7819 17.7417 49.5503 17.7767 49.3118L17.9798 49.1644L18.463 47.8665C18.5471 47.7823 18.6381 47.6981 18.7222 47.6069C19.1424 47.6069 19.4225 47.2561 19.7376 47.0596C20.7391 47.0035 21.0192 46.4562 20.7671 45.5441C21.2027 45.172 21.566 44.7224 21.8386 44.2181C22.2224 43.4312 22.8132 42.7641 23.5474 42.2887C24.1917 42.2887 24.5349 41.8256 24.892 41.4257C26.2507 39.9032 27.7354 38.486 29.2061 37.1038C30.3892 35.9044 31.6328 34.7663 32.9318 33.694C34.7036 32.3399 36.1323 30.5368 37.9882 29.2388C38.1539 29.1399 38.2949 29.0045 38.4005 28.8428C38.5061 28.6811 38.5735 28.4974 38.5975 28.3056C39.0737 28.3898 39.2628 28.004 39.3748 27.4777C39.3547 27.3703 39.3193 27.2664 39.2698 27.169C39.3241 27.26 39.4014 27.335 39.4939 27.3865C39.6952 27.46 39.9159 27.46 40.1172 27.3865C41.9801 26.6849 43.4087 25.2817 45.1035 24.3135C45.2268 24.2261 45.3217 24.1044 45.3765 23.9635C45.4313 23.8225 45.4435 23.6685 45.4117 23.5207C45.5104 23.1994 45.6721 22.9012 45.8874 22.6434C46.1026 22.3855 46.3671 22.1733 46.6653 22.0192C47.3656 21.7035 48.0659 21.486 48.7662 21.2194C48.8472 21.3346 48.9534 21.4297 49.0767 21.4975C49.1999 21.5654 49.337 21.6042 49.4775 21.6109C49.6179 21.6177 49.7581 21.5923 49.8873 21.5366C50.0165 21.4809 50.1312 21.3964 50.2229 21.2896C51.6236 19.8863 53.3674 19.1847 54.9571 18.1604C55.3773 17.8868 55.8605 17.6552 55.9586 17.0799C56.0998 16.6722 56.3539 16.3132 56.6912 16.0449C57.0285 15.7765 57.4351 15.6099 57.8635 15.5644C58.2098 15.5067 58.5337 15.3553 58.8003 15.1266C59.0669 14.8978 59.266 14.6004 59.3762 14.2665C58.8831 14.1681 58.3727 14.2044 57.8985 14.3717C57.3312 14.5541 56.778 14.7997 56.2247 15.0172C55.6714 15.2347 54.9221 15.2698 54.4809 15.789C53.8743 16.4635 53.0615 16.9175 52.1698 17.0799C51.9167 17.1558 51.6794 17.277 51.4695 17.4377C49.9358 18.4972 48.5421 19.7881 46.6863 20.3284C46.5223 20.3832 46.3784 20.4858 46.273 20.623C45.2576 22.0263 43.5978 22.5665 42.2462 23.5137C41.5559 24.0824 40.8257 24.6006 40.0611 25.0642C38.735 25.7627 37.5593 26.7164 36.6015 27.8706V27.8706C35.7331 28.1302 35.2779 28.909 34.6266 29.4493C33.5551 30.3473 32.4136 31.1612 31.3491 32.0592C30.6687 32.6979 29.9431 33.2864 29.1781 33.8203C29.1303 34.1189 28.9698 34.3876 28.7298 34.571C27.9525 35.2235 27.2101 35.9391 26.4888 36.6407C25.7674 37.3424 24.9691 38.2264 24.2197 39.0332C23.7148 39.6084 23.1354 40.1133 22.4969 40.5347V40.5347C21.7966 40.8153 21.7266 41.6362 21.1873 42.0572L20.9842 42.8149C20.508 43.1026 20.438 43.6498 20.1928 44.0778C19.3174 44.3725 18.9813 45.1372 18.6381 45.895C17.7207 46.6878 17.1885 47.7893 16.3971 48.7014C15.2357 50.0652 14.2019 51.5331 13.3086 53.0864C12.1391 55.0509 11.0746 57.0786 9.89804 59.0431C9.45713 59.6672 9.09487 60.3436 8.81953 61.0567C8.62407 61.6681 8.34853 62.2508 8.00014 62.7897C7.11564 64.3919 6.3773 66.0709 5.79411 67.8062C5.26186 68.1991 5.3389 68.8024 5.27587 69.3567C5.09002 69.5125 4.94547 69.7118 4.85505 69.937C4.76464 70.1623 4.73116 70.4064 4.75762 70.6477V70.6477C4.55403 70.8006 4.4183 71.0272 4.37946 71.2791C4.07831 72.3315 3.80519 73.3839 3.44102 74.4223C2.95483 75.7731 2.69912 77.1962 2.68465 78.632C2.29947 79.3336 2.53058 80.1966 2.15941 80.9122C1.92499 81.4174 1.7646 81.9538 1.68319 82.5048C1.46609 83.5853 1.44508 84.736 0.695724 85.6551C0.457613 85.9427 0.590686 86.2093 0.793781 86.4619C0.975802 86.7006 1.09332 86.9822 1.13503 87.2796C1.17674 87.577 1.14123 87.8802 1.03189 88.1598C0.558974 89.7163 0.341368 91.3394 0.387578 92.9658C0.432246 93.7816 0.356729 94.5996 0.163468 95.3934V95.3934C-0.0886495 95.9266 0.422605 96.3826 0.310553 96.8948C-0.0186014 98.3682 0.310538 99.8626 0.142459 101.35C-0.0606355 102.964 0.268518 104.598 0.317541 106.219C0.305075 107.764 0.408079 109.307 0.625687 110.836C0.811698 112.022 0.91002 113.22 0.919834 114.421C1.02943 115.771 1.21648 117.113 1.48009 118.441C1.6468 119.711 1.91138 120.966 2.27146 122.195C2.60762 123.289 2.48157 124.615 3.09085 125.534C3.79118 126.657 3.27994 127.787 3.59509 128.86C3.64255 129.117 3.75328 129.358 3.91724 129.562C4.13853 129.875 4.27814 130.24 4.32342 130.621C4.64557 131.807 4.6946 133.077 5.42995 134.129C5.5487 134.307 5.60532 134.519 5.59101 134.733C5.59404 135.286 5.75174 135.828 6.04624 136.297C6.65142 137.522 7.17545 138.785 7.61497 140.079C8.05617 141.377 8.63043 142.605 9.17668 143.853C9.0016 144.464 9.79298 144.716 9.70894 145.334C9.72333 145.889 9.88792 146.43 10.1852 146.898C10.5213 147.698 11.2847 148.253 11.5858 148.94C11.978 149.894 12.6363 150.666 12.9865 151.599L13.2386 151.866C13.684 152.938 14.2859 153.938 15.0244 154.834C15.044 154.863 15.0675 154.889 15.0945 154.911V154.911C15.4306 155.149 15.9349 155.205 16.0539 155.697C16.4579 156.917 17.1387 158.026 18.0428 158.938C18.4989 159.443 18.8809 160.009 19.1774 160.622C19.4077 161.132 19.7501 161.582 20.1788 161.941C20.9675 162.706 21.6463 163.577 22.1958 164.53C22.693 165.369 23.3302 166.117 24.0797 166.74C24.3899 166.97 24.6577 167.253 24.871 167.575C26.3627 169.729 28.3727 171.427 30.1515 173.307C31.174 174.38 32.0424 175.636 33.429 176.31C34.2904 177.867 35.8872 178.604 37.1828 179.678C37.7711 180.534 38.7445 180.933 39.5149 181.565C40.5308 182.513 41.6461 183.348 42.8414 184.056C43.5418 184.701 44.123 185.459 45.1595 185.606L45.4397 185.838C45.4397 185.838 45.4397 185.873 45.4747 185.894C46.175 187.037 47.3586 187.444 48.4861 187.949C49.0884 188.356 49.6766 188.763 50.3209 189.121C51.8757 189.977 53.3183 191.03 54.9081 191.836C56.4978 192.643 57.9265 193.422 59.4532 194.145C61.2951 195.008 63.1439 195.892 64.9928 196.769C66.3444 197.407 67.6961 198.032 69.0687 198.628C70.9106 199.435 72.8295 200.031 74.7344 200.67C76.3782 201.269 78.0665 201.738 79.7837 202.073C81.2824 202.332 82.8652 202.29 84.1818 203.259C84.3314 203.342 84.5008 203.383 84.672 203.378C86.5629 203.434 88.3137 204.304 90.2116 204.353C90.6853 204.36 91.1561 204.428 91.6123 204.557C93.7553 205.167 96.0034 205.027 98.1884 205.413C99.7122 205.667 101.266 205.691 102.796 205.483C103.18 205.46 103.564 205.505 103.931 205.616C105.381 206.025 106.91 206.063 108.378 205.728C108.712 205.658 109.053 205.63 109.394 205.644C112.006 205.644 114.611 205.602 117.223 205.511C120.361 205.406 123.428 204.809 126.545 204.557C127.232 204.596 127.918 204.464 128.541 204.171V204.171C129.594 204.245 130.649 204.069 131.622 203.658C133.133 203.25 134.693 203.05 136.258 203.062C137.065 203.105 137.87 202.95 138.604 202.613C141.329 201.764 144.088 201.006 146.777 200.045C147.136 200.034 147.488 199.95 147.814 199.8V199.8C148.81 199.631 149.763 199.264 150.615 198.719V198.719C151.593 198.653 152.546 198.386 153.416 197.933L159.362 195.892L162.415 194.825C163.397 194.223 164.442 193.731 165.532 193.359C166.568 192.959 167.633 192.587 168.669 192.229C169.636 191.798 170.572 191.301 171.471 190.742C172.871 190.04 174.391 189.753 175.673 188.848C176.163 188.497 176.709 188.237 177.22 187.928C180.025 186.382 182.736 184.669 185.337 182.8C185.82 182.175 186.738 182.175 187.179 181.481C188.461 181.074 189.238 179.986 190.253 179.229C192.064 177.894 193.768 176.421 195.352 174.822V174.822C196.334 174.167 197.218 173.376 197.978 172.472C198.335 172.295 198.654 172.049 198.914 171.746C199.173 171.443 199.37 171.091 199.491 170.711V170.711C199.691 170.446 199.926 170.21 200.191 170.009C201.558 169.221 202.709 168.105 203.539 166.761C204.148 165.912 204.659 164.951 205.64 164.453C206.172 163.639 206.97 163.049 207.369 162.109C208.007 161.794 208.168 161.148 208.448 160.58C208.917 160.425 209.148 159.997 209.47 159.668C210.378 158.621 211.149 157.463 211.768 156.223C211.929 155.949 212.09 155.676 212.258 155.409C212.579 155.26 212.846 155.015 213.021 154.707C213.805 153.178 215.031 151.943 215.822 150.442C217.111 148.077 218.547 145.804 219.744 143.39C220.045 142.78 220.522 142.254 220.501 141.517C221.201 140.893 221.397 139.96 221.796 139.153C222.484 137.937 223.075 136.667 223.561 135.357C224.64 132.901 225.606 130.397 226.579 127.892C227.397 125.883 228.025 123.802 228.456 121.676C228.755 120.919 228.921 120.117 228.947 119.304L229.353 118.589C229.596 118.108 229.695 117.567 229.64 117.031C229.802 116.725 229.882 116.381 229.871 116.035V116.035C230.09 115.629 230.183 115.167 230.137 114.709C230.365 114.238 230.455 113.713 230.396 113.193C230.48 112.751 230.557 112.316 230.641 111.874C231.027 110.878 230.837 109.769 231.125 108.78C231.16 108.714 231.173 108.637 231.16 108.563C231.231 108.409 231.287 108.25 231.328 108.085C231.524 106.521 231.545 104.935 231.832 103.385C231.828 103.174 231.78 102.966 231.692 102.774V102.452C232.203 100.719 231.797 98.9856 231.692 97.2456C231.947 95.4892 231.947 93.7049 231.692 91.9485C231.692 91.8082 231.517 91.6819 231.419 91.5486C231.413 90.181 231.284 88.8166 231.034 87.4722C230.809 85.7813 230.487 84.0975 230.333 82.3996C230.283 81.2904 230.066 80.1952 229.689 79.1512C229.199 78.0005 229.353 77.5164 230.305 76.6675C230.867 76.2096 231.4 75.7176 231.902 75.1941C233.043 73.861 234.171 72.521 235.369 71.244C237.116 69.3577 238.412 67.0975 239.157 64.6349C239.681 63.3552 239.755 61.9351 239.367 60.6077C239.297 60.5083 239.253 60.3922 239.241 60.2709V60.2709ZM163.753 4.64743C163.826 4.7099 163.906 4.76402 163.991 4.8088C163.896 4.78418 163.811 4.72716 163.753 4.64743V4.64743ZM182.781 38.7105C182.747 38.7381 182.719 38.7713 182.697 38.8087C182.714 38.7682 182.744 38.7339 182.781 38.7105V38.7105ZM160.153 63.7088L160.216 63.6316C160.202 63.6619 160.18 63.6883 160.153 63.7088V63.7088ZM133.884 88.4194C133.928 88.3738 133.968 88.3245 134.003 88.2721C133.976 88.3302 133.935 88.3808 133.884 88.4194V88.4194ZM137.274 80.4351C137.379 80.4628 137.482 80.498 137.582 80.5403C137.464 80.5462 137.348 80.5059 137.26 80.4281L137.274 80.4351ZM135.397 90.1664C135.04 90.0682 134.963 89.8086 134.97 89.4648C134.977 89.121 134.97 88.7632 134.97 88.4404C135.386 87.925 135.631 87.2921 135.67 86.6303C135.698 86.5583 135.717 86.4828 135.726 86.4058C135.833 86.3177 135.936 86.224 136.034 86.1251C136.7 85.3536 137.179 84.4389 137.435 83.452C137.54 83.1503 137.638 82.8416 137.736 82.5469C138.044 82.8215 138.272 83.1747 138.395 83.5689C138.519 83.9631 138.533 84.3835 138.436 84.7851C137.778 86.2444 136.783 87.5284 136.181 88.9947C135.967 89.4149 135.703 89.8082 135.397 90.1664V90.1664ZM172.108 65.9118C171.876 66.182 171.698 66.4939 171.583 66.8309C169.056 67.1301 166.495 66.8543 164.089 66.0241H163.914C163.214 65.5259 162.696 64.8454 162.03 64.3192C162.128 63.965 162.276 63.627 162.471 63.3159C164.333 60.6398 166.574 58.2502 169.125 56.2226V56.2226C170.666 56.7418 172.044 57.6562 173.123 58.8747C173.618 59.3208 173.954 59.9163 174.08 60.5708C174.207 61.2254 174.117 61.9033 173.824 62.502C173.391 63.7037 172.815 64.8486 172.108 65.9118V65.9118Z" fill="#E5E4D9"/>
<path d="M60.6157 12.4633L60.3776 12.6949C60.0695 13.8385 60.0695 13.8385 61.0779 14.1963C61.1813 14.2122 61.287 14.2047 61.3871 14.1744C61.4872 14.144 61.5793 14.0916 61.6565 14.021C61.7338 13.9503 61.7942 13.8632 61.8335 13.7661C61.8727 13.6689 61.8898 13.5642 61.8833 13.4596C62.2545 13.1649 62.9338 13.614 63.1439 12.9334C62.3854 12.4764 61.4875 12.3094 60.6157 12.4633Z" fill="#E5E4D9"/>
<path d="M55.1883 121.395L56.9951 117.024C57.0138 117.002 57.0302 116.979 57.0442 116.954C57.3515 116.432 57.5359 115.846 57.5834 115.242C57.9336 113.467 57.6464 112.87 55.9726 111.867C54.3447 111.575 52.6734 111.635 51.0703 112.043C49.8378 112.309 48.5912 112.52 47.3586 112.821C46.5485 113.056 45.7533 113.339 44.9775 113.67C42.8765 114.449 40.7755 115.291 38.7376 116.259C38.3705 116.203 37.9956 116.281 37.6801 116.477C37.287 116.515 36.9177 116.683 36.6296 116.954C36.0973 117.122 35.6701 117.487 35.1239 117.655C33.142 118.238 31.2791 119.206 29.1781 119.388C28.9626 119.401 28.7535 119.466 28.5688 119.578C27.5302 120.195 26.2975 120.398 25.1162 120.146C24.1427 120.525 23.3094 120.013 22.4129 119.76C21.3625 119.473 20.459 119.164 20.1789 117.957C20.1229 117.74 19.8637 117.571 19.6747 117.389C19.4856 117.206 19.2475 117.024 19.2965 116.757C19.4295 116.056 19.1844 115.389 19.2965 114.709C19.4897 112.685 19.8409 110.679 20.347 108.71C20.6971 107.517 21.1944 106.381 21.6146 105.202C22.0348 104.023 21.6706 102.627 22.7701 101.694C22.9592 101.532 22.9452 101.133 23.0222 100.838C23.1046 100.462 23.2365 100.099 23.4144 99.7574C24.1814 98.2834 24.8075 96.74 25.2843 95.1478C26.1417 92.6467 27.2125 90.2243 28.4848 87.9072C28.3027 86.8057 29.6193 86.1111 29.2901 84.9605C29.2901 84.9605 29.4092 84.8482 29.4722 84.7921C30.1728 84.1 30.6903 83.244 30.9779 82.3014C31.4962 81.1086 31.6783 79.7616 32.5677 78.7302C32.7041 78.564 32.7892 78.3617 32.8128 78.1479C32.8715 77.7254 33.0177 77.32 33.242 76.9575C33.4663 76.595 33.7638 76.2835 34.1154 76.043C34.1359 76.0331 34.1539 76.0188 34.1681 76.001C34.1824 75.9833 34.1926 75.9626 34.1979 75.9405C34.2033 75.9184 34.2037 75.8953 34.1991 75.873C34.1945 75.8507 34.1851 75.8297 34.1714 75.8115C34.1022 75.522 34.0181 75.2363 33.9193 74.9555C33.7793 74.5977 33.8773 74.3171 34.2205 74.2539C35.32 74.0435 35.6981 73.2506 35.9643 72.2965C36.0993 71.8924 36.2728 71.5024 36.4825 71.1318C36.7697 70.5565 36.6366 70.2478 36.0413 70.1846C35.8039 70.1362 35.557 70.1825 35.353 70.3134C35.149 70.4444 35.0041 70.6499 34.9488 70.8862C34.7667 71.4054 34.5566 71.9246 34.3955 72.4508C34.3709 72.6431 34.3009 72.8268 34.1913 72.9867C34.0817 73.1465 33.9356 73.2779 33.7653 73.3699C33.4872 73.4743 33.246 73.6584 33.0716 73.8992C32.8973 74.1399 32.7975 74.4268 32.7848 74.724C32.6256 75.5281 32.3012 76.2903 31.8323 76.9621C31.6362 77.1883 31.4906 77.4538 31.4052 77.7409C31.2398 78.4987 30.8491 79.1886 30.2846 79.7195C30.2598 79.9279 30.22 80.1342 30.1656 80.3369C29.4652 82.5259 28.2957 84.5465 27.4553 86.6513C27.4338 86.7345 27.4081 86.8164 27.3783 86.8969C26.902 88.1458 25.5154 89.0929 26.1457 90.7066C26.1457 90.7628 26.1037 90.875 26.0546 90.9312C25.3543 91.752 25.0602 92.8045 24.4929 93.7376C23.8486 94.769 23.3794 95.9056 22.8261 96.9931C22.532 98.1718 21.9577 99.2873 21.9507 100.543C21.934 100.672 21.8777 100.792 21.7896 100.887C21.3608 101.617 21.0177 102.394 20.7672 103.202C20.431 103.96 20.375 104.858 19.7237 105.468C19.6116 106.57 19.3573 107.653 18.9673 108.689C18.8714 109.019 18.8429 109.365 18.8833 109.706C18.8814 110.048 18.8074 110.385 18.6662 110.695C17.8757 112.374 17.6308 114.259 17.9659 116.084C18.1059 116.785 17.9658 117.571 18.239 118.189C18.9393 119.732 20.487 120.293 21.8107 121.121C21.9093 121.169 22.0212 121.182 22.1281 121.158C22.235 121.134 22.3305 121.074 22.3989 120.988C22.8051 120.532 23.2463 120.714 23.6945 120.876C24.2548 121.086 24.8221 121.283 25.3893 121.486C26.2718 121.395 27.2242 121.655 28.0015 120.981H28.4428L28.7439 121.241L29.2832 120.974C31.5827 120.334 33.8379 119.545 36.0343 118.61C36.6436 118.357 37.3929 118.308 37.7431 117.599C38.0539 117.641 38.3695 117.576 38.6395 117.417C38.6863 117.4 38.7275 117.371 38.7586 117.333C39.1331 117.254 39.5026 117.154 39.8651 117.031C42.2322 116.105 44.5713 115.109 46.9804 114.281C49.6122 113.283 52.419 112.832 55.2303 112.955C55.4754 113.123 55.7205 113.298 55.9726 113.46C56.0764 113.516 56.167 113.594 56.2386 113.688C56.3103 113.783 56.3613 113.891 56.3884 114.006C56.4155 114.121 56.4181 114.241 56.3959 114.357C56.3737 114.473 56.3274 114.584 56.2598 114.681C55.8466 115.572 55.4334 116.47 55.0272 117.361L54.1518 120.371C52.047 125.021 50.1771 129.775 48.5492 134.613C47.9366 135.814 47.5856 137.132 47.5197 138.479C46.7872 139.63 46.43 140.981 46.4972 142.345C45.7969 142.682 46.2871 143.418 46 143.896C45.7393 144.363 45.6361 144.902 45.7058 145.432C45.6488 145.478 45.6028 145.536 45.5713 145.603C45.5397 145.669 45.5232 145.741 45.5232 145.814C45.5232 145.888 45.5397 145.96 45.5713 146.026C45.6028 146.093 45.6488 146.151 45.7058 146.197C45.7514 146.783 45.7514 147.372 45.7058 147.958C45.6009 148.466 45.6165 148.992 45.7516 149.492C45.8866 149.993 46.1372 150.455 46.4832 150.841C46.3618 150.94 46.3618 151.024 46.4832 151.094C47.0715 151.241 47.2255 151.585 46.9804 152.132C46.9314 152.35 47.0225 152.434 47.2396 152.406C47.8068 152.546 48.0449 153.297 48.7453 153.227C49.0324 153.227 49.3616 153.318 49.4806 152.925C49.5263 152.805 49.5265 152.673 49.4814 152.552C49.4362 152.432 49.3488 152.333 49.2355 152.273C48.4791 151.922 48.206 151.185 47.7578 150.582C47.7563 150.516 47.7304 150.453 47.6851 150.405C47.6398 150.357 47.5784 150.327 47.5127 150.322C47.3064 149.922 47.2097 149.474 47.2326 149.024C47.1135 148.435 46.7283 147.825 46.9244 147.27C47.4216 145.867 47.1345 144.366 47.6247 142.976C47.8053 142.355 47.8717 141.706 47.8208 141.061C47.9882 140.939 48.1266 140.781 48.2259 140.599C48.3252 140.417 48.3829 140.216 48.3951 140.009C48.4415 139.552 48.5823 139.11 48.8083 138.711C48.9604 138.215 49.0567 137.705 49.0954 137.188H49.3615C49.4255 136.392 49.5902 135.607 49.8518 134.852L49.8938 134.613L50.5941 133.54C50.5941 133.371 50.5941 133.196 50.5941 133.021C50.5941 132.845 50.7272 132.859 50.7972 132.782C50.8533 132.616 50.8533 132.436 50.7972 132.27C51.0614 130.731 51.5898 129.25 52.3589 127.892C52.8352 126.818 53.2834 125.738 53.6826 124.636C54.0018 123.48 54.5106 122.384 55.1883 121.395ZM37.6801 117.543C37.718 117.504 37.7632 117.473 37.8131 117.452L37.6801 117.543Z" fill="#E5E4D9"/>
<path d="M36.8186 69.476C37.2668 69.6795 37.5189 69.3918 37.75 69.041C37.9034 68.8377 38.0393 68.6218 38.1562 68.3955C38.5404 67.5869 39.0918 66.8695 39.774 66.2907C39.8073 66.2856 39.8393 66.2739 39.868 66.2562C39.8967 66.2386 39.9216 66.2153 39.9412 66.1878C39.9607 66.1603 39.9746 66.1292 39.982 66.0963C39.9894 66.0633 39.9901 66.0293 39.9841 65.996C40.4302 65.1775 40.8346 64.3368 41.1956 63.4773C41.6395 62.262 42.4073 61.1919 43.4157 60.3832C43.7171 60.1743 43.9356 59.8658 44.0329 59.5118C44.1302 59.1578 44.1001 58.7808 43.9479 58.4467C43.8359 58.2152 43.6958 57.9767 43.4087 57.9556C43.1215 57.9346 42.8694 58.1801 42.7084 58.4537C42.646 58.5682 42.6101 58.6953 42.6033 58.8256C42.5908 59.1911 42.4835 59.547 42.2919 59.8582C42.1003 60.1695 41.8311 60.4254 41.5108 60.6007C41.2548 60.8289 41.031 61.0909 40.8455 61.3795C40.0896 62.414 39.4596 63.5351 38.9686 64.7191L38.7235 64.9857C38.2701 65.9698 37.6755 66.8822 36.9587 67.6939C36.8034 67.9456 36.6765 68.2139 36.5805 68.4938C36.4334 68.8867 36.3564 69.2725 36.8186 69.476Z" fill="#E5E4D9"/>
<path d="M52.8701 51.7885C53.3253 51.1711 53.2412 50.9676 52.3798 50.5677C52.2036 50.503 52.0125 50.4911 51.8297 50.5335C51.6469 50.5759 51.4803 50.6706 51.3503 50.8062L51.0422 51.0448L49.8096 51.3535C49.5904 51.6573 49.3202 51.9208 49.0113 52.1323C48.0034 52.8088 47.1374 53.6764 46.4621 54.6861C46.0797 55.5879 45.5145 56.4002 44.8023 57.0716C44.5152 57.3522 44.2981 57.7311 44.7323 58.0468C45.0544 58.2783 45.2785 57.9837 45.4326 57.7381C45.9461 56.8907 46.7583 56.2673 47.7087 55.9911C48.0098 55.9069 48.1639 55.6192 48.409 55.4438C49.6836 54.4616 50.657 53.1285 52.0997 52.3497C52.1832 52.3359 52.2684 52.3359 52.3518 52.3497C52.5375 52.175 52.7106 51.9875 52.8701 51.7885Z" fill="#E5E4D9"/>
<path d="M65.2239 12.4072L65.7492 11.9091L66.1834 11.6425C66.3725 11.5302 66.5685 11.3969 66.5125 11.1514C66.4565 10.9058 66.2044 10.8988 65.9943 10.8707C64.5936 10.6813 64.1874 10.9409 63.5922 12.309C63.4725 12.5286 63.3342 12.7375 63.179 12.9334C63.9353 13.0667 64.5516 12.6458 65.2239 12.4072Z" fill="#E5E4D9"/>
<path d="M90.3237 36.5776C91.024 36.6899 91.7243 37.0266 92.3756 36.4092C93.0269 35.7918 93.4541 35.3147 93.9934 34.7675C94.4599 34.2056 94.7283 33.5052 94.7568 32.7749C94.8058 32.4311 94.7568 32.0312 94.3296 31.9751C93.9024 31.9189 93.8393 32.2838 93.8183 32.5855C93.8104 32.842 93.7325 33.0915 93.593 33.3067C93.4535 33.522 93.2577 33.6947 93.027 33.8063C92.7398 33.9536 92.6628 34.2553 92.5577 34.5079C92.5256 34.6624 92.4343 34.7982 92.3033 34.8861C92.1724 34.974 92.0123 35.007 91.8574 34.9779C91.7056 34.9694 91.5616 34.9078 91.4503 34.804C91.339 34.7003 91.2675 34.5607 91.2481 34.4096C91.2061 34.2062 91.1991 33.9887 91.1711 33.7782C91.342 33.5855 91.4322 33.3342 91.4232 33.0766C91.3882 32.375 91.1221 32.2978 90.3937 32.6907C89.6934 33.3923 89.6934 34.3675 89.6934 35.2796C89.6864 35.869 89.6864 36.5004 90.3237 36.5776Z" fill="#E5E4D9"/>
<path d="M92.3126 31.3085C92.9709 30.9297 93.5592 30.6069 94.3155 31.1682C94.8058 31.519 95.0929 31.077 95.2259 30.628C95.408 30.0456 95.226 29.5335 94.7287 29.5194C94.061 29.483 93.3964 29.4009 92.7398 29.2739C92.4557 29.275 92.1768 29.3507 91.9311 29.4935C91.6853 29.6364 91.4812 29.8412 91.3391 30.0877C91.08 30.4947 90.8139 30.9788 91.164 31.3997C91.5142 31.8207 91.9624 31.512 92.3126 31.3085Z" fill="#E5E4D9"/>
<path d="M164.278 161.387C163.883 161.722 163.632 162.197 163.578 162.713C163.508 163.197 163.676 163.618 164.215 163.618C164.755 163.618 165.238 163.695 165.378 164.411C165.427 164.663 165.84 164.733 166.148 164.775C166.483 164.81 166.815 164.867 167.143 164.944C168.044 165.243 169.007 165.31 169.941 165.137C170.875 164.964 171.751 164.557 172.486 163.955C173.085 163.734 173.672 163.481 174.244 163.197C175.238 162.657 176.345 162.278 177.15 161.429C178.562 160.634 179.894 159.706 181.128 158.657C182.102 157.822 183.299 157.254 184.119 156.293C184.859 155.534 185.706 154.886 186.633 154.371C186.908 154.312 187.166 154.189 187.384 154.011C187.602 153.833 187.774 153.605 187.886 153.346L188.692 152.588C189.236 152.462 189.719 152.15 190.057 151.704C190.288 151.453 190.536 151.218 190.8 151.003C192.834 149.533 194.784 147.95 196.64 146.26C197.147 145.942 197.605 145.552 197.999 145.102C198.153 144.871 198.496 144.625 198.132 144.352C197.908 144.176 197.635 144.295 197.432 144.506C196.732 145.327 195.513 145.509 194.841 146.414C194.778 146.498 194.512 146.414 194.343 146.414C193.587 146.779 193.307 147.614 192.551 148.07C191.598 148.645 190.905 149.663 189.861 150.175C188.818 150.687 188.188 151.803 187.06 152.28C185.806 152.834 185.127 154.181 183.916 154.848C183.24 155.22 182.665 155.752 182.242 156.398C179.938 158.264 177.459 159.906 175.007 161.541C173.775 161.948 172.71 162.755 171.457 163.113C169.913 163.552 168.285 163.605 166.715 163.267C165.392 162.888 165.385 162.937 165.98 161.751C166.12 161.446 166.242 161.132 166.344 160.811C167.458 159.457 168.613 158.152 169.846 156.875C171.408 155.227 173.18 153.816 174.748 152.21C175.442 151.395 176.206 150.644 177.031 149.964C177.339 149.747 177.62 149.417 178.054 149.705C178.607 150.077 178.712 149.705 178.957 149.27C179.335 148.568 179.37 147.691 180.05 147.27C181.114 146.611 182.004 145.741 183.012 145.018C184.252 144.12 185.505 143.229 186.752 142.345C188.534 141.099 190.217 139.718 191.787 138.213C192.277 137.728 192.817 137.3 193.335 136.851C194.287 136.318 195.205 135.701 196.136 135.132C196.725 134.768 197.474 134.571 197.908 133.954L199.197 132.901C199.645 131.919 200.156 131.119 201.48 131.533C201.879 131.659 202.04 131.217 202.005 130.832C202.005 130.594 201.932 130.362 201.797 130.166C201.662 129.971 201.471 129.821 201.249 129.737C200.548 129.449 200.128 129.863 199.736 130.354C198.739 130.845 197.861 131.549 197.166 132.417C196.18 132.83 195.276 133.417 194.497 134.15C193.631 135.034 192.717 135.87 191.759 136.655C191.021 137.359 190.174 137.94 189.252 138.374C187.99 139.644 186.621 140.803 185.162 141.84C183.362 142.99 181.766 144.387 180.057 145.65C178.957 146.463 178.047 147.495 176.961 148.316C175.639 149.178 174.458 150.241 173.46 151.466C173.207 151.528 172.979 151.662 172.801 151.852C171.99 152.675 171.132 153.45 170.231 154.174C169.653 154.621 169.154 155.162 168.753 155.774C168.347 156.332 167.877 156.84 167.353 157.289C166.042 158.394 164.976 159.761 164.222 161.302L164.278 161.387Z" fill="#E5E4D9"/>
<path d="M175.084 115.782C175.006 115.867 174.957 115.976 174.944 116.091C174.884 116.214 174.837 116.344 174.804 116.477C174.622 117.291 174.874 117.578 175.701 117.557C175.828 117.551 175.954 117.535 176.079 117.508C178.684 117.073 180.071 115.13 181.415 113.158C181.499 113.039 181.464 112.842 181.478 112.674C180.066 113.429 178.792 114.418 177.711 115.6C177.514 115.821 177.276 116.002 177.01 116.133C176.646 116.315 176.464 116.077 176.359 115.761C177.489 114.003 178.786 112.358 180.232 110.85C180.568 110.672 180.884 110.461 181.177 110.218C182.236 109.236 183.51 108.515 184.896 108.114C185.057 108.057 185.218 108.008 185.372 107.938C185.453 107.908 185.521 107.849 185.562 107.773C185.603 107.697 185.615 107.609 185.596 107.524C185.589 107.438 185.557 107.356 185.503 107.289C185.45 107.221 185.377 107.171 185.295 107.145C185.09 107.096 184.877 107.096 184.672 107.145C182.277 107.847 180.015 108.773 178.698 111.109C176.954 112.274 176.002 114.014 175.084 115.782Z" fill="#E5E4D9"/>
</svg>
