<svg width="119" height="21" viewBox="0 0 119 21" fill="none" xmlns="http://www.w3.org/2000/svg">
<path d="M57.5432 0H0V21C6.74475 20.9797 13.2465 18.5077 18.2675 14.0546C21.6648 11.0577 24.254 7.27158 25.8014 3.03782C25.0133 9.58553 21.8413 15.6256 16.878 20.0294C16.4956 20.3697 16.1131 20.6975 15.7179 21H41.889C41.4938 20.6975 41.0987 20.3697 40.729 20.0294C35.7383 15.6369 32.5385 9.59575 31.7291 3.03782C33.2811 7.27242 35.8746 11.0585 39.2757 14.0546C44.2961 18.5087 50.7982 20.9809 57.5432 21V0Z" fill="#494949"/>
<path d="M93.1986 17.9622C93.989 11.4152 97.1606 5.37587 102.122 0.970588C102.504 0.630252 102.887 0.315126 103.282 0H61.4568V21H119V0C113.357 0.0237647 107.858 1.75878 103.244 4.97086C98.63 8.18293 95.1238 12.7174 93.1986 17.9622Z" fill="#494949"/>
</svg>
