<svg width="93" height="56" viewBox="0 0 93 56" fill="none" xmlns="http://www.w3.org/2000/svg">
<path d="M91.3161 25.6409C86.4712 18.0784 79.8326 11.8622 72.005 7.55839C64.1773 3.25459 55.4095 1 46.5 1C37.5905 1 28.8227 3.25459 20.995 7.55839C13.1674 11.8622 6.5288 18.0784 1.68391 25.6409C1.23737 26.3448 1 27.1636 1 28C1 28.8364 1.23737 29.6552 1.68391 30.3591C6.5288 37.9216 13.1674 44.1378 20.995 48.4416C28.8227 52.7454 37.5905 55 46.5 55C55.4095 55 64.1773 52.7454 72.005 48.4416C79.8326 44.1378 86.4712 37.9216 91.3161 30.3591C91.7626 29.6552 92 28.8364 92 28C92 27.1636 91.7626 26.3448 91.3161 25.6409V25.6409Z" stroke="#E5E4D9" stroke-width="1.5" stroke-miterlimit="10"/>
<path d="M46.5 55C61.1355 55 73 42.9117 73 28C73 13.0883 61.1355 1 46.5 1C31.8645 1 20 13.0883 20 28C20 42.9117 31.8645 55 46.5 55Z" stroke="#E5E4D9" stroke-width="1.5" stroke-miterlimit="10"/>
</svg>
