<svg width="111" height="45" viewBox="0 0 111 45" fill="none" xmlns="http://www.w3.org/2000/svg">
<g clip-path="url(#clip0_12_3)">
<path d="M110.305 3.3658C110.747 2.89254 111.003 2.27946 111.029 1.63641V0.971803L110.522 0.528735C110.143 0.181745 109.642 -0.00763342 109.125 -8.80667e-05C108.66 -0.000137008 108.211 0.164706 107.858 0.464419L107.75 0.550174C107.67 0.61449 107.576 0.700245 107.511 0.743123C106.953 0.788246 106.434 1.04426 106.063 1.45775H105.947L105.527 1.79362L104.514 2.594C103.424 3.39799 102.379 4.26166 101.387 5.18095L101.474 4.85222L101.59 4.4163L101.778 3.70167L101.286 3.11568C100.98 2.73773 100.591 2.43416 100.148 2.22846C99.7049 2.02275 99.2198 1.92043 98.7302 1.9294C98.5518 1.91923 98.3729 1.91923 98.1945 1.9294H97.9267L97.6878 2.05089C97.4562 2.17237 97.2463 2.29386 97.058 2.40106C96.8294 2.5417 96.5869 2.65902 96.3342 2.75122C95.1909 3.15093 94.1417 3.77576 93.2504 4.58781L93.1129 4.28767L92.8451 3.73741L92.5048 3.02278L92.2587 2.50825L91.723 2.29386C90.6597 1.85352 89.5173 1.62989 88.3642 1.63641H87.9444C87.6765 1.63641 87.1336 1.73645 85.418 2.04374L83.7893 2.32959C83.1395 2.40875 82.5066 2.58968 81.9144 2.86556C81.5774 2.52754 81.1714 2.26415 80.7233 2.09289C80.2753 1.92163 79.7955 1.84641 79.3157 1.87223H78.99C78.7544 1.66659 78.4728 1.51917 78.1682 1.44214C77.8636 1.3651 77.5448 1.36065 77.2382 1.42916H76.5794L75.4791 1.3577C74.444 1.28624 73.1627 1.19334 72.3375 1.19334C72.0066 1.18109 71.6755 1.21233 71.353 1.28624L70.3106 1.44346C68.6388 1.6214 66.9851 1.93693 65.3665 2.38676C64.4495 2.46595 63.5412 2.62376 62.652 2.85842C62.2031 2.95846 61.6964 3.0728 61.2621 3.15856C60.9046 2.8436 60.5082 2.57467 60.0822 2.35818L59.6623 2.14379H59.1918C58.6851 2.14379 58.1711 2.19381 57.621 2.20811C56.8319 2.20811 56.014 2.25098 55.1743 2.33674C54.4052 2.44587 53.6471 2.62041 52.9085 2.85842C52.4335 3.00186 51.95 3.11641 51.4607 3.20144H51.3594L51.5114 2.75837L50.5848 2.10806L50.2084 1.84365L49.7089 1.50063L49.4049 1.27909L49.0285 1.23621C48.9057 1.22505 48.7821 1.22505 48.6593 1.23621C48.0935 1.23893 47.536 1.37101 47.0306 1.62211C46.7337 1.75834 46.4292 1.87764 46.1185 1.97943C45.5853 2.14145 45.0801 2.38241 44.6201 2.69405C44.3489 2.69297 44.0805 2.74698 43.8314 2.85271C43.5824 2.95844 43.358 3.11363 43.1723 3.30863C40.9749 4.79136 39.0217 6.59908 37.3812 8.66833C37.193 7.6607 37.0048 6.64593 36.9324 5.80982L36.918 5.18095L36.5922 4.87366V4.78791C36.3735 4.12978 35.907 3.57975 35.2892 3.25146L34.7463 3.00134L34.1889 3.14427H34.0369C33.03 3.33746 32.0829 3.76088 31.2717 4.38057L31.0256 4.46632C30.2116 4.71406 29.4386 5.07757 28.7309 5.54541C28.5026 5.23884 28.2457 4.95413 27.9635 4.695L27.189 3.94465L26.2262 4.42345C26.0091 4.53064 25.6254 4.70215 25.1766 4.90225C23.7932 5.43358 22.4747 6.11676 21.2459 6.93893C20.9305 6.98974 20.6338 7.12021 20.3845 7.31768L19.8488 7.74646V8.29672V8.25384L19.3928 7.63212H18.5531C16.3018 7.63212 15.6576 9.81173 15.4476 10.6407C15.4476 10.7407 15.3752 10.8765 15.3608 10.9337C15.1597 11.3666 15.0371 11.831 14.9988 12.3058C14.9817 12.4502 14.9551 12.5935 14.9192 12.7345C14.7602 12.9062 14.6389 13.1084 14.563 13.3286C14.487 13.5487 14.4579 13.782 14.4776 14.0137C14.4943 14.9878 14.33 15.9567 13.9926 16.8722C13.2971 19.2328 12.7769 21.6403 12.4363 24.0757C11.4084 20.3882 10.1705 15.7217 10.0764 14.6998L10.1995 14.1638L9.7724 13.5778C9.57719 13.2442 9.45397 12.8744 9.41046 12.4916C9.31162 11.9104 9.12623 11.3469 8.86031 10.8194L8.34635 9.8546L7.82516 9.94751C7.48277 9.66908 7.05263 9.51742 6.60904 9.51873C6.48397 9.50462 6.35769 9.50462 6.23262 9.51873H6.10232L5.97202 9.56875C5.57729 9.7182 5.25417 10.0091 5.06717 10.3834L4.94411 10.4406C4.36575 10.6786 3.83411 11.0148 3.37329 11.4339C2.99829 11.5113 2.66269 11.7162 2.425 12.0128C2.165 12.2558 1.85694 12.4431 1.52015 12.563C1.29575 12.6702 1.07134 12.7774 0.79627 12.9061L0 13.3849L0.0651493 14.3353V14.3853C0.0735396 14.8102 0.18526 15.2269 0.390896 15.6002C1.83866 18.1157 4.08993 26.5197 4.43739 28.0418C4.5315 28.4778 4.74142 29.1281 4.98754 29.8856C5.34242 30.8896 5.6278 31.9163 5.84172 32.9585L5.71866 33.5873L6.18195 34.1519C6.28909 34.3774 6.35759 34.6189 6.38464 34.8665C6.38464 35.038 6.45702 35.2381 6.5077 35.4382C7.02165 37.4463 9.65658 42.5845 10.1778 43.4706C10.1746 43.4847 10.1746 43.4994 10.1778 43.5135C10.2687 43.8369 10.4353 44.1347 10.6641 44.383C10.893 44.6312 11.1776 44.823 11.4952 44.9427L11.7558 45.0356H14.4993L14.9554 44.4639L15.1219 44.2496C15.7117 43.3745 16.4936 42.6418 17.4094 42.1057C17.5831 42.0271 18.097 41.7912 18.5748 40.6764C18.9063 40.0449 18.9938 39.3159 18.8209 38.6254C18.8209 38.5183 18.8209 38.3467 18.8209 38.1395C19.1241 38.2349 19.4337 38.3089 19.7475 38.361L20.7754 38.5325L21.3111 37.6536C21.3719 37.5602 21.4252 37.4622 21.4703 37.3606C21.5912 37.0994 21.7524 36.8584 21.9481 36.6459L22.672 36.5745L23.0701 35.9385C23.2239 35.6505 23.3267 35.3387 23.3741 35.0166C23.7301 34.6924 24.046 34.3278 24.3152 33.9304L26.4868 34.1233L26.9429 33.523C27.3497 33.0983 27.801 32.7174 28.2893 32.3868L29.5633 30.9575C29.7298 30.7074 30.0121 30.3572 30.1641 30.1643C30.3162 29.9713 30.5478 29.6783 30.6636 29.4925C31.2264 28.6023 31.5687 27.5936 31.6626 26.5483L32.0462 26.3124L32.0897 25.5335C32.2064 24.6292 32.4051 23.7372 32.6833 22.8679L32.98 23.4111L33.8342 23.4539H33.9211C34.4405 23.4187 34.9406 23.2459 35.3689 22.9537C35.2629 23.3213 35.1855 23.6964 35.1372 24.0757C34.6956 25.0717 34.4171 26.1306 34.312 27.2129C34.1021 29.2924 34.4857 29.6355 34.797 29.9142L35.2313 30.3143H37.2003L37.6491 29.8713C37.6677 29.8565 37.6847 29.8397 37.6998 29.8213C38.0111 29.5549 38.2416 29.2086 38.3657 28.8208C38.6698 28.5921 39.1403 28.2777 39.3285 28.1562L39.4877 28.049C39.7505 27.9185 39.9808 27.7323 40.1622 27.5038C40.3437 27.2752 40.4718 27.01 40.5374 26.7269C40.9354 26.514 41.232 26.1544 41.3626 25.7264C41.3626 25.6693 41.4495 25.5764 41.5001 25.4978C41.8898 24.8863 42.2311 24.246 42.5208 23.5826C42.5595 23.6614 42.603 23.7377 42.6511 23.8113L42.7886 23.9899L42.9696 24.1257C43.5727 24.5628 44.249 24.8918 44.9675 25.0976L45.3295 25.2262L46.0027 25.4763L46.618 25.1333L46.893 24.9689L47.0523 24.8689H47.226C47.4721 24.8407 47.7146 24.788 47.9499 24.7117C49.9037 23.9895 51.7307 22.9695 53.3646 21.6888L53.6324 21.4744L53.7699 21.1814C54.5375 20.1609 55.3641 19.1851 56.2456 18.2586C56.0357 18.7088 55.7896 19.2877 55.5217 19.988C55.348 20.4096 55.1091 20.9742 55.0222 21.1385C54.6851 21.6278 54.5498 22.2256 54.6439 22.8099C54.7381 23.3943 55.0547 23.9211 55.529 24.2829L55.9561 24.6402H58.439L58.895 24.1328C59.431 23.6795 60.0248 23.2975 60.6613 22.9966C60.8857 22.8751 61.2911 22.6607 62.6664 21.1028C63.7378 19.888 64.1576 19.4092 64.1793 18.8517C64.2952 18.6016 64.5558 18.1371 64.744 17.8441V18.0228L64.8236 18.7374L65.3665 19.0733C65.5642 19.3121 65.8095 19.5083 66.0872 19.6497C66.3649 19.7911 66.669 19.8746 66.9808 19.8951H67.3355L67.6685 19.7593C67.9038 19.66 68.1456 19.5764 68.3923 19.5092C69.3819 19.2896 70.2866 18.7934 70.9983 18.0799C71.5295 17.9237 72.0224 17.6609 72.4461 17.3082C73.073 16.7524 73.5822 16.0796 73.9445 15.3286C74.0603 15.1143 74.1761 14.9142 74.2847 14.7355C74.3933 14.5568 74.5091 14.4211 74.7553 14.0995C74.7911 14.2188 74.8346 14.3358 74.8855 14.4496C75.0377 14.7756 75.2246 15.0846 75.4429 15.3715C75.5226 15.493 75.6384 15.6502 75.6673 15.7145L75.8556 16.2577L76.355 16.5364C76.5362 16.6337 76.7222 16.7219 76.9124 16.8008L77.1006 16.8865L77.2961 17.1938L77.7956 17.3725C78.0467 17.4602 78.3109 17.5061 78.5774 17.5082C78.9253 17.5024 79.2691 17.4321 79.5908 17.301C80.3259 17.272 81.0549 17.1569 81.7624 16.958C82.0013 16.9008 82.2257 16.8436 82.4429 16.8008C83.7082 16.5396 84.9072 16.0292 85.9682 15.3001C85.9682 15.3644 86.0261 15.4358 86.0695 15.5144L86.5039 16.3005H89.0736L89.45 16.0576C89.7673 15.8756 90.1019 15.7248 90.449 15.6073C91.1976 15.3695 91.8913 14.9882 92.4903 14.4854L92.8595 14.1352C93.158 14.665 93.5363 15.1469 93.9815 15.5645L94.9371 16.4792L95.9867 15.6574C96.0079 15.6369 96.0323 15.6199 96.0591 15.6073V15.6073L96.5296 15.7074L96.9784 15.5216C99.0773 14.479 101.074 13.2469 102.943 11.8413C103.522 11.291 104.775 9.89034 106.222 8.26813C107.569 6.75313 109.118 5.03803 109.748 4.4163L110.283 3.89462L110.225 3.40868M18.3287 24.0256C18.3285 24.6346 18.2923 25.2431 18.2201 25.8479L17.9161 26.0766C17.9561 26.4349 17.973 26.7953 17.9667 27.1557L17.8147 27.4344L17.8582 27.8846C17.9122 28.4933 17.9122 29.1054 17.8582 29.7141L17.4238 30.1714C17.6989 30.6359 17.641 32.3868 17.5252 34.2234C17.3914 34.7144 17.34 35.2238 17.3732 35.7312C17.3766 35.7764 17.3766 35.8218 17.3732 35.867C17.3732 36.0385 17.3732 36.1957 17.3732 36.3601C17.3249 37.2456 17.3249 38.133 17.3732 39.0185C17.408 39.3293 17.3736 39.6439 17.2723 39.9401C17.171 40.2364 17.0053 40.5072 16.7868 40.7336C15.5734 41.4124 14.5354 42.3589 13.7538 43.4992H12.0454C11.6617 43.3634 11.6617 42.9918 11.517 42.7417C11.0899 42.0271 8.45494 36.8818 7.98441 35.0523C7.92476 34.3884 7.70913 33.7473 7.35464 33.18C7.53561 32.3725 6.18195 28.8279 5.90687 27.7131C5.61008 26.4196 3.32986 17.6655 1.69388 14.8498C1.60129 14.6557 1.55664 14.4426 1.56358 14.2281C2.33145 13.9474 3.03161 13.5117 3.61941 12.9489C3.61941 12.9132 3.71351 12.9061 3.79314 12.9061H4.1406C4.56045 12.1486 5.42911 11.927 6.15299 11.534C6.42807 11.3768 6.29053 11.1123 6.51493 11.0266H6.59456C6.96374 11.0266 7.06508 11.5411 7.43426 11.5411H7.50665C7.99889 12.4558 7.84688 13.5921 8.56352 14.5211C8.33912 15.5073 12.7331 30.2429 12.7331 30.2429C13.457 29.4282 14.1808 21.0028 15.4332 17.3796C15.8324 16.23 16.0306 15.0217 16.0195 13.8065C16.642 13.1919 16.3814 12.2986 16.7434 11.6054C17.0112 11.0695 17.1415 9.16142 18.5603 9.16142C18.792 9.47585 18.4083 10.2691 19.3566 10.6621C19.3566 11.1123 19.248 13.3849 19.5158 13.9494C19.5158 13.9494 19.5158 13.9923 19.5158 14.0066C19.3855 14.9856 19.2191 16.0361 19.067 17.0366C18.6327 19.8165 18.2201 22.4463 18.3432 24.0542M24.431 26.4411C24.2928 26.8181 24.1957 27.2086 24.1415 27.6059C23.7192 28.3877 23.5404 29.2753 23.6275 30.1571C23.6311 30.2095 23.6311 30.262 23.6275 30.3143C23.4169 30.8333 23.3326 31.3938 23.3814 31.9508C23.3814 32.0795 23.3814 32.2224 23.3814 32.2796L23.3235 32.6512C23.0486 33.1551 22.6803 33.6036 22.2376 33.9732C21.8612 34.1876 21.9481 34.7808 21.7164 35.1595C20.6885 35.2596 20.1891 36.5244 19.9719 36.8818C19.5863 36.8293 19.2135 36.7082 18.8716 36.5244C18.9055 36.3238 18.9176 36.1202 18.9078 35.917C18.9078 35.817 18.9078 35.7169 18.9078 35.624C18.9078 35.231 18.9585 34.8665 18.9874 34.5235C19.0093 34.4415 19.0409 34.3624 19.0815 34.2877C19.1731 33.9022 19.1731 33.5011 19.0815 33.1157C19.0756 32.2055 19.1313 31.2959 19.248 30.393L19.4217 30.2143C19.4217 30.2143 19.4217 28.4563 19.5955 26.6412L20.1673 26.2195L19.8923 25.2334C19.8246 24.477 19.8783 23.7149 20.0515 22.9751L20.3266 22.8751L20.3628 21.8603C20.4424 19.4806 20.6741 17.5726 20.8406 16.1433C20.9675 15.3997 21.0257 14.6462 21.0143 13.8922C21.1956 12.7532 21.2731 11.6004 21.2459 10.4477C21.2097 10.069 21.7092 9.73312 21.4269 9.3901C21.1446 9.04708 21.2676 8.74693 21.2821 8.42535C21.5138 8.2467 21.8467 8.48252 22.0422 8.16809C22.3679 7.63212 25.8788 6.18143 26.8488 5.70263C27.1383 5.97419 28.0359 6.75313 27.6523 7.70358C27.614 7.81734 27.5605 7.9255 27.493 8.02516C27.1673 9.26147 26.7691 11.3839 26.4144 13.6064C25.7485 16.6221 25.1621 19.5235 25.2418 21.1528C25.1957 21.7398 25.0939 22.3212 24.9377 22.8894C24.7141 23.7896 24.6046 24.7138 24.612 25.6407V25.6407C24.62 25.9105 24.5681 26.1788 24.46 26.4268M42.9189 15.7074C42.7565 16.0419 42.6724 16.4083 42.6728 16.7793L42.5425 16.8651L42.4195 17.4725C42.2256 18.4571 42.1215 19.4568 42.1082 20.4597C41.9779 20.817 41.8838 21.0957 41.8331 21.2386C40.8414 24.0971 40.0451 24.7331 39.9365 25.2048C39.8786 25.4335 39.6687 25.462 39.4371 25.462H39.1692C38.9665 25.8479 39.3792 26.4196 38.7494 26.7055C38.3006 27.0128 36.889 27.9061 36.9469 28.1347C37.0048 28.3634 36.7949 28.5564 36.5995 28.7422H35.8756C35.7463 27.2183 36.0417 25.6886 36.7298 24.3186C36.4112 23.5826 39.5095 16.129 39.7411 15.543C39.9727 14.957 39.8135 14.6497 39.8135 14.6497C39.5722 15.1827 39.2336 15.6672 38.8145 16.079C38.3773 16.5901 38.1409 17.2395 38.1486 17.9084C37.5695 18.3944 35.9769 20.2167 35.919 20.9242C35.2778 21.2991 34.6156 21.6379 33.9356 21.9389V21.9389C33.8542 21.7117 33.7231 21.5049 33.5517 21.3333C33.3803 21.1616 33.1728 21.0293 32.9439 20.9456C32.7194 20.231 32.5023 19.5163 32.2779 18.8375L31.8942 19.2091C31.9377 20.6812 30.7433 23.5683 30.6274 25.4477L30.1859 25.7264C30.2425 26.7843 29.9642 27.8333 29.3896 28.7279C29.1507 29.1209 27.9418 30.4644 28.007 30.8718C27.145 31.297 26.3792 31.8901 25.7557 32.6154C25.4646 32.605 25.1745 32.5764 24.8871 32.5297C24.9812 31.958 24.7567 31.3648 25.1115 30.7646C25.2707 30.5002 24.887 28.735 25.6182 28.2348C25.6182 27.0485 26.1538 26.7341 26.1032 25.605C26.0525 24.4759 26.8705 22.2248 26.8271 21.16C26.7474 19.7307 27.341 16.7936 27.9635 14.0137C28.4703 11.7198 28.9987 9.50444 29.1941 8.19667C29.3215 7.8344 29.3684 7.44932 29.3317 7.06756C30.1714 6.23145 31.9159 5.88843 32.1259 5.69548C32.8279 5.14754 33.6602 4.78591 34.5436 4.64498C35.1155 4.93083 35.0576 5.58829 35.4268 5.92416C35.7091 8.38248 36.4185 11.1481 36.3895 12.8132C38.28 9.42942 40.9569 6.53692 44.2002 4.37342C44.2482 4.29479 44.318 4.23143 44.4015 4.19088C44.4849 4.15034 44.5784 4.13432 44.6707 4.14474H44.953C45.0311 4.15506 45.1105 4.14459 45.183 4.11444C45.2555 4.08428 45.3186 4.03553 45.3657 3.97323C45.6697 3.5659 46.8134 3.35151 47.6893 2.92273C47.9843 2.77892 48.3086 2.70317 48.6376 2.7012H48.8113L49.68 3.31578C49.6293 3.47299 49.6221 3.58733 49.5786 3.60163C49.2529 3.73026 49.014 3.83745 48.9054 4.26623C48.7455 4.82302 48.5447 5.36757 48.3046 5.89558C46.0306 8.6159 44.2835 11.7264 43.1506 15.0714C43.0492 15.3429 42.9334 15.6502 42.89 15.736M75.1751 10.2334C74.9342 10.7121 74.7636 11.2222 74.6684 11.7484C73.7925 12.856 73.1555 13.7064 73.0179 13.8922C72.6302 14.7077 72.1148 15.4577 71.4905 16.1147C71.0944 16.4354 70.6157 16.6407 70.1079 16.7079C69.4347 17.8441 68.1245 17.9013 67.0749 18.3444C66.6405 18.3444 66.5392 17.9585 66.2496 17.7798C66.1049 16.5149 66.8215 15.5216 67.3789 14.4854C68.9063 11.6698 72.0262 8.11092 72.9455 7.02469C73.5319 6.31006 74.8711 4.65927 74.8711 4.65927C73.4233 4.55923 72.9311 4.85222 71.4761 4.81649C70.8029 5.19524 67.8567 9.10425 67.6902 9.49015C67.2631 10.6335 64.4761 13.7779 64.0708 15.8289C63.9984 16.2076 62.5361 18.2658 62.623 18.6874C61.826 19.7388 60.9265 20.7106 59.9374 21.5888C59.1408 21.9873 58.3989 22.4844 57.7296 23.068H56.4628C56.3636 23.0035 56.2793 22.9192 56.2153 22.8204C56.1513 22.7217 56.1091 22.6108 56.0914 22.4948C56.0736 22.3789 56.0807 22.2606 56.1123 22.1476C56.1439 22.0346 56.1991 21.9294 56.2746 21.8389C56.47 21.5316 57.4038 19.1162 57.8381 18.3372C58.2725 17.5583 58.7213 15.8146 60.198 13.1276C60.6251 12.3558 62.7678 8.12521 63.5496 6.69596H63.0139C61.5661 6.69596 61.5661 7.23907 60.4441 7.23907H60.2269C60.2586 8.05061 60.0897 8.85755 59.7347 9.59019C59.4307 10.3048 58.0046 12.9489 57.2446 14.9856C56.3252 15.8289 52.7927 19.6521 52.4018 20.4668C50.9053 21.6364 49.2353 22.5716 47.4504 23.2396C47.1754 23.3325 46.8496 23.3253 46.5673 23.4254C46.3147 23.5265 46.0724 23.6509 45.8434 23.797C45.1341 23.6108 44.4613 23.3088 43.8527 22.9037C43.6438 22.2085 43.5509 21.4844 43.5777 20.7598C43.5605 19.7714 43.6528 18.7841 43.8527 17.8155C44.3812 17.4654 43.9903 16.8937 44.2292 16.422C44.6345 15.6145 45.8362 11.0123 49.5786 6.72454C50.2104 5.99304 50.8925 5.30537 51.62 4.66642C52.8216 4.50206 53.9943 3.95179 55.3046 3.8446C56.6148 3.73741 57.9684 3.74455 59.2714 3.6588C60.1908 4.18762 60.1908 4.18762 60.5455 4.8022C61.6458 4.72359 64.5268 3.88748 65.4099 3.88748C65.4675 3.87863 65.5261 3.87863 65.5837 3.88748C66.7346 3.3658 71.3168 2.85842 71.7367 2.75837C71.9364 2.7378 72.1378 2.7378 72.3375 2.75837C73.5753 2.75837 77.5567 2.95132 77.6508 2.95132C77.9331 2.95132 78.1285 3.25146 78.3747 3.46585H79.3302C79.7686 3.4361 80.2051 3.54634 80.5753 3.78028C79.8132 4.39669 79.1149 5.08609 78.4905 5.83841L77.6291 6.82459L77.8607 7.089L77.4047 7.53922C76.5139 8.32141 75.767 9.24982 75.1968 10.2834M86.4749 12.8203L86.3518 12.9346L85.8596 13.3991V13.5707C84.8226 14.4558 83.5787 15.0723 82.2402 15.3644C81.3952 15.6084 80.5266 15.7641 79.6487 15.8289H79.5329C79.2578 15.8289 78.99 16.0361 78.6497 16.0361C78.5565 16.0348 78.4638 16.0203 78.3747 15.9932C78.1358 15.6145 77.6508 15.5144 77.1803 15.2786C77.0138 14.7927 76.5794 14.4139 76.3478 13.8922C76.1625 13.427 76.0978 12.9234 76.1596 12.4273C76.2174 11.9187 76.3618 11.4234 76.5867 10.9623C77.2247 9.90533 78.0313 8.95697 78.9755 8.15379C79.3085 7.81554 79.6415 7.48681 79.9744 7.16761L79.627 6.78171C80.3846 5.79179 81.3345 4.96092 82.4212 4.33769C82.9064 4.09424 83.4304 3.93472 83.9703 3.86604C84.4915 3.80172 87.6403 3.20144 87.995 3.15141H88.3498C89.3012 3.14179 90.2447 3.32418 91.1222 3.68738L91.7303 4.92369C91.3539 5.65257 91.0578 6.41922 90.8471 7.21049C89.7903 8.42535 88.965 9.47585 88.5452 10.069C88.4006 10.2746 88.27 10.4895 88.1543 10.7122L88.0312 10.9408C87.7249 11.0594 87.4541 11.2527 87.244 11.5027C87.0338 11.7526 86.8913 12.051 86.8296 12.3701C86.7128 12.52 86.5819 12.6588 86.4387 12.7846M108.734 3.33722C107.395 4.62354 103.037 9.71168 101.937 10.7622C100.201 12.0378 98.3612 13.1684 96.4355 14.1424C96.3219 14.1142 96.2052 14.0998 96.088 14.0995C95.7203 14.1058 95.3666 14.2399 95.0891 14.4782C94.5402 14.0229 94.1499 13.409 93.9733 12.7231C93.7967 12.0372 93.8426 11.3138 94.1046 10.655C94.0395 10.6072 93.9613 10.5798 93.8802 10.5764C93.8225 10.5836 93.7676 10.6053 93.7208 10.6394C93.674 10.6735 93.6369 10.7189 93.6129 10.7712C93.589 10.8236 93.579 10.8811 93.584 10.9383C93.5889 10.9955 93.6087 11.0505 93.6413 11.0981C92.9174 11.8699 92.2804 12.6845 91.5204 13.3849C90.7603 14.0852 89.6165 14.1995 88.69 14.8141H87.4739C87.3881 14.6312 87.3604 14.4269 87.3942 14.2281C87.3942 14.1495 87.3942 14.0709 87.3942 13.9923C87.829 13.67 88.1566 13.2271 88.3353 12.7203C88.3787 12.5416 88.4728 12.3915 88.5886 12.3629C89.3125 12.1557 89.4283 11.4697 89.7975 10.9337C90.1667 10.3977 91.1439 9.19715 92.2877 7.90368C92.7727 7.35341 93.2939 6.77457 93.8512 6.19572C94.6501 5.33256 95.6414 4.66465 96.7468 4.24479C97.334 4.02922 97.8968 3.75379 98.4262 3.42297C98.5418 3.41235 98.6581 3.41235 98.7736 3.42297C99.039 3.41571 99.3024 3.47013 99.5426 3.58185C99.7828 3.69357 99.993 3.85946 100.156 4.06613C99.9463 4.86652 98.9257 8.35389 99.2659 9.36151C100.164 8.70406 100.714 7.68214 101.742 7.21764C102.219 6.17428 105.361 3.97323 106.548 2.9799C107.077 2.9799 107.156 2.26528 107.685 2.26528C108.141 2.19591 108.559 1.97088 108.865 1.62926C108.944 1.55908 109.047 1.52084 109.154 1.52207C109.285 1.52238 109.41 1.57379 109.502 1.66499C109.502 2.33674 108.676 2.65832 108.778 3.35865" fill="#494949"/>
<path d="M83.1305 9.43305C82.7503 9.77718 82.4607 10.2075 82.2866 10.6868C82.1126 11.1662 82.0594 11.6802 82.1315 12.1844H82.7106C83.9545 11.0038 85.0111 9.64509 85.8451 8.15387C86.1503 7.67151 86.3132 7.11469 86.3156 6.54596C85.1571 7.38806 84.0897 8.34598 83.1305 9.40446" fill="#494949"/>
<path d="M54.5807 7.23915C54.5083 7.31776 54.4504 7.39637 54.3852 7.48213L54.1246 7.84659L54.0378 7.96093C53.9814 8.03556 53.921 8.10713 53.8568 8.17531L53.7555 8.27536C53.6871 8.3403 53.6119 8.3978 53.5311 8.44687C53.4432 8.49352 53.3511 8.5318 53.256 8.56121L53.0171 8.91852C52.7203 9.40447 52.3728 10.0762 52.0254 10.7837C51.9602 10.9123 51.8951 11.041 51.8372 11.1696L51.7431 11.3554C51.6128 11.6341 51.4752 11.9128 51.3449 12.1844L50.9685 12.9705C50.9178 13.0776 50.8744 13.1777 50.8237 13.2706C50.7731 13.3635 50.7007 13.5279 50.6355 13.6493L50.5487 13.8209C50.469 13.9852 50.3894 14.1353 50.317 14.2568L50.2591 14.3497C50.2173 14.4236 50.1714 14.4952 50.1216 14.5641C50.1323 14.6614 50.1323 14.7597 50.1216 14.8571V15.0071C50.0869 15.4551 50.0044 15.8983 49.8755 16.3292C49.8272 16.5293 49.7838 16.7365 49.7452 16.9509C49.7183 17.0903 49.6989 17.2311 49.6872 17.3725C49.691 17.4201 49.691 17.4679 49.6872 17.5155C49.6694 17.7152 49.6694 17.9161 49.6872 18.1158L49.984 17.7727L50.0275 17.7156L50.3387 17.3368L50.7586 16.7866L51.0916 16.322L51.316 15.9933C51.649 15.5002 51.9964 14.95 52.3222 14.3497C52.4042 14.2115 52.4838 14.0686 52.5611 13.9209C52.6262 13.8066 52.6841 13.6851 52.7493 13.5636C52.8144 13.4421 52.9519 13.1491 53.0461 12.9419C53.3537 12.2896 53.6196 11.6189 53.8423 10.9338C54.0812 10.2191 54.3273 9.50452 54.5662 8.78989C54.6314 8.53263 54.6965 8.28251 54.7472 8.02524C54.7978 7.76798 54.8123 7.67508 54.8413 7.49642L54.8847 7.23201C54.8847 7.14625 54.8847 7.05335 54.8847 6.96045L54.7834 7.03906C54.6919 7.11264 54.6072 7.19394 54.53 7.28203" fill="#494949"/>
</g>
<defs>
<clipPath id="clip0_12_3">
<rect width="111" height="45" fill="white"/>
</clipPath>
</defs>
</svg>
