<svg width="106" height="123" viewBox="0 0 106 123" fill="none" xmlns="http://www.w3.org/2000/svg">
<g clip-path="url(#clip0_16_405)">
<path d="M52.1237 63.3114H56.5057L54.3115 57.111L52.1237 63.3114Z" fill="white"/>
<path d="M24.9487 55.9441H20.4707V60.3362H24.9487C25.5649 60.3732 26.1724 60.1764 26.6503 59.7848C27.0505 59.3321 27.2715 58.7482 27.2715 58.1433C27.2715 57.5385 27.0505 56.9546 26.6503 56.5019C26.1733 56.108 25.5657 55.9088 24.9487 55.9441Z" fill="white"/>
<path d="M100.14 51.1095L18.3469 1.75688C16.5083 0.647136 14.4083 0.0474082 12.2622 0.0191727C10.1161 -0.00906285 8.0011 0.535209 6.13401 1.5962C4.26692 2.65719 2.71489 4.19673 1.63701 6.05702C0.559135 7.91731 -0.00582504 10.0314 4.52851e-05 12.1827V110.849C-0.000147984 112.998 0.568944 115.108 1.64913 116.964C2.72932 118.82 4.28184 120.355 6.14796 121.412C8.01408 122.469 10.1268 123.01 12.2702 122.981C14.4135 122.951 16.5106 122.351 18.3469 121.243L100.14 71.8713C101.921 70.7897 103.394 69.2662 104.416 67.4478C105.438 65.6293 105.975 63.5775 105.975 61.4904C105.975 59.4033 105.438 57.3514 104.416 55.533C103.394 53.7146 101.921 52.191 100.14 51.1095ZM30.6486 60.4581C30.3586 61.0764 29.9187 61.612 29.3691 62.0162C28.7923 62.4309 28.1405 62.7292 27.45 62.8946C26.6313 63.0936 25.7912 63.1905 24.9488 63.1831H20.4708V69.89H16.9268V53.1036H24.9488C25.7908 53.0972 26.6305 53.1919 27.45 53.3857C28.1386 53.5566 28.7894 53.8544 29.3691 54.2641C29.9157 54.6688 30.355 55.2016 30.6486 55.8158C31.2627 57.302 31.2627 58.9719 30.6486 60.4581ZM45.2915 69.89H32.267V53.1036H35.7471V67.0559H45.2915V69.89ZM58.8534 69.89L57.574 66.139H51.1769L49.8015 69.89H45.9632L52.4115 53.0908H56.2498L62.6917 69.89H58.8534ZM73.3684 63.2986V69.89H69.8628V63.3114L62.9475 53.1036H67.0737L71.5836 60.3362L76.1256 53.1036H80.2453L73.3684 63.2986Z" fill="white"/>
</g>
<defs>
<clipPath id="clip0_16_405">
<rect width="106" height="123" fill="white"/>
</clipPath>
</defs>
</svg>
