<svg width="107" height="12" viewBox="0 0 107 12" fill="none" xmlns="http://www.w3.org/2000/svg">
<path d="M60.6538 5.47634C60.4806 5.25094 60.2944 5.0365 60.0959 4.83417C59.4625 4.18226 58.7095 3.66517 57.8803 3.31265C57.0512 2.96013 56.1622 2.77915 55.2646 2.7801C56.1619 2.78187 57.0508 2.60169 57.88 2.24992C58.7091 1.89815 59.4622 1.38175 60.0959 0.730429C60.2933 0.527099 60.4795 0.312713 60.6538 0.0882568H49.8797C50.4509 0.833108 51.1638 1.45115 51.9751 1.90482C52.7865 2.35849 53.6794 2.63833 54.5995 2.72732C54.3729 2.7522 54.1452 2.76395 53.9173 2.76251C53.0182 2.76891 52.1269 2.59263 51.2947 2.24384C50.4624 1.89506 49.7059 1.38068 49.0688 0.730429C48.8714 0.527099 48.6852 0.312713 48.511 0.0882568H46.4085V5.47634H60.6538Z" fill="#E5E4D9"/>
<path d="M106.427 0.0882568H61.6492V5.47634H106.427V0.0882568Z" fill="#E5E4D9"/>
<path d="M45.4044 0.0883918C45.149 0.520405 44.8436 0.919162 44.4948 1.27597C43.325 2.47362 41.7393 3.14634 40.086 3.14634C38.4327 3.14634 36.8471 2.47362 35.6773 1.27597C35.54 1.13962 35.4156 0.99447 35.2954 0.836127C36.4903 1.85804 38.0148 2.38495 39.5693 2.31333C41.1239 2.24171 42.5961 1.57674 43.6967 0.449064C43.8168 0.325907 43.9284 0.20275 44.0357 0.0751953H31.1635V5.47648H36.8744C36.7757 5.39731 36.6813 5.31374 36.5869 5.22577C35.3516 4.09932 34.5597 2.54939 34.3601 0.866916C34.8396 2.22086 35.7151 3.39012 36.867 4.2151C38.0188 5.04008 39.391 5.48058 40.7962 5.47648H45.413V0.0883918H45.4044Z" fill="#E5E4D9"/>
<path d="M26.8985 6.49684C25.4931 6.49434 24.1211 6.93598 22.9694 7.76162C21.8177 8.58726 20.9423 9.75674 20.4624 11.1108C20.669 9.42342 21.4701 7.87163 22.715 6.74755C22.8094 6.65958 22.9038 6.58041 23.0025 6.49684H15.9228V11.8893H30.168C30.0608 11.7618 29.9535 11.6386 29.8333 11.5199C28.7336 10.3897 27.2611 9.72233 25.7055 9.64907C24.15 9.57582 22.624 10.102 21.4278 11.124C21.5479 10.9788 21.6724 10.8381 21.8097 10.6842C22.9007 9.56138 24.36 8.89455 25.904 8.81326C27.4479 8.73197 28.9662 9.24203 30.1637 10.2443V7.32814C29.1849 6.78639 28.0923 6.49658 26.98 6.48364L26.8985 6.49684Z" fill="#E5E4D9"/>
<path d="M103.179 6.49684C101.774 6.49434 100.402 6.93598 99.2501 7.76162C98.0984 8.58726 97.223 9.75674 96.743 11.1108C96.941 9.42749 97.7312 7.87605 98.9656 6.74755C99.06 6.65958 99.1587 6.58041 99.2531 6.49684H92.1863V11.8893H106.427C106.324 11.7618 106.213 11.6386 106.097 11.5199C104.997 10.3916 103.525 9.72577 101.97 9.65333C100.416 9.5809 98.891 10.107 97.6956 11.1284C97.8157 10.9832 97.9402 10.8425 98.0732 10.6885C99.1647 9.56667 100.624 8.90046 102.168 8.81919C103.711 8.73791 105.229 9.24737 106.427 10.2487V7.32814C105.45 6.78708 104.359 6.49729 103.248 6.48364L103.179 6.49684Z" fill="#E5E4D9"/>
<path d="M45.4044 6.49695C45.1477 6.92938 44.8424 7.32944 44.4948 7.68892C43.325 8.88658 41.7393 9.55929 40.086 9.55929C38.4327 9.55929 36.8471 8.88658 35.6773 7.68892C35.54 7.54817 35.4156 7.40742 35.2954 7.24908C36.4867 8.27537 38.0096 8.80749 39.5644 8.74074C41.1191 8.67399 42.5933 8.01321 43.6967 6.88841C43.8168 6.76965 43.9284 6.6421 44.0357 6.51454H31.1635V11.8894H45.4087V6.49695H45.4044Z" fill="#E5E4D9"/>
<path d="M20.2007 0.334605C21.432 1.46246 22.2231 3.00937 22.4275 4.68906C21.948 3.33511 21.0725 2.16585 19.9206 1.34088C18.7688 0.515898 17.3966 0.0753974 15.9914 0.0794961H15.9228V5.47638H26.1819C26.0832 5.39721 25.9888 5.31364 25.8945 5.22567C24.6591 4.09923 23.8672 2.5493 23.6676 0.866817C24.1471 2.22076 25.0226 3.39002 26.1745 4.215C27.3263 5.03998 28.6985 5.48048 30.1037 5.47638H30.1723V0.0882932H19.9132C20.0119 0.167465 20.1063 0.251034 20.2007 0.334605Z" fill="#E5E4D9"/>
<path d="M65.9228 6.74767C67.1565 7.87723 67.9479 9.42785 68.1497 11.1109C67.6697 9.75687 66.7943 8.58738 65.6426 7.76174C64.4909 6.93611 63.1189 6.49446 61.7136 6.49696H61.6449V11.8894H71.904C71.8054 11.8103 71.711 11.7267 71.6166 11.6387C70.3812 10.5123 69.5893 8.96236 69.3897 7.27988C69.8714 8.6324 70.7474 9.80023 71.8988 10.6249C73.0502 11.4495 74.4212 11.891 75.8258 11.8894H75.8944V6.49696H65.6224C65.734 6.58053 65.8284 6.6597 65.9228 6.74767Z" fill="#E5E4D9"/>
<path d="M14.9316 0.0882568H0.686401V5.47634C2.0835 5.47052 3.44522 5.0254 4.58772 4.20109C5.73022 3.37678 6.59849 2.21297 7.07531 0.866781C6.87283 2.54961 6.08156 4.09997 4.84841 5.23003C4.75402 5.3136 4.65962 5.39717 4.56093 5.47634H11.0571C10.9584 5.39717 10.864 5.3136 10.7696 5.23003C9.53968 4.09913 8.75279 2.54838 8.55561 0.866781C9.03242 2.21297 9.90069 3.37678 11.0432 4.20109C12.1857 5.0254 13.5474 5.47052 14.9445 5.47634V0.0882568H14.9316Z" fill="#E5E4D9"/>
<path d="M8.55561 11.1065C8.75376 9.42453 9.5441 7.87455 10.7782 6.74766C10.8726 6.65969 10.9713 6.58052 11.0657 6.49695H0.686401V11.8894H14.9316V6.49695C13.5373 6.50796 12.1795 6.9553 11.0401 7.77909C9.90058 8.60289 9.03376 9.76382 8.55561 11.1065Z" fill="#E5E4D9"/>
<path d="M60.6538 6.49695H46.4085V11.8894C47.805 11.8811 49.1656 11.435 50.3077 10.611C51.4497 9.78706 52.3185 8.62466 52.7974 7.27987C52.5958 8.96174 51.8043 10.511 50.5705 11.6387C50.4761 11.7267 50.3817 11.8103 50.283 11.8894H56.7792C56.6805 11.8103 56.5861 11.7267 56.4917 11.6387C55.2564 10.5123 54.4645 8.96235 54.2648 7.27987C54.7438 8.62466 55.6126 9.78706 56.7546 10.611C57.8966 11.435 59.2572 11.8811 60.6538 11.8894V6.49695Z" fill="#E5E4D9"/>
<path d="M91.1565 6.49695C90.8983 6.92948 90.5916 7.32953 90.2426 7.68892C89.0728 8.88658 87.4871 9.55929 85.8338 9.55929C84.1806 9.55929 82.5949 8.88658 81.4251 7.68892C81.2921 7.54817 81.1634 7.40742 81.0432 7.24908C82.2357 8.27472 83.759 8.80637 85.3142 8.73963C86.8694 8.6729 88.3441 8.01261 89.4488 6.88841C89.5646 6.76965 89.6762 6.6421 89.7835 6.51454H76.9113V11.8894H82.6136C82.515 11.8103 82.4206 11.7267 82.3262 11.6387C81.0924 10.511 80.3008 8.96174 80.0993 7.27987C80.581 8.63239 81.457 9.80022 82.6084 10.6249C83.7598 11.4495 85.1308 11.891 86.5354 11.8894H91.1651V6.49695H91.1565Z" fill="#E5E4D9"/>
</svg>
