<svg width="61" height="11" viewBox="0 0 61 11" fill="none" xmlns="http://www.w3.org/2000/svg">
<path d="M29.4969 0H0V11C3.45739 10.9894 6.79021 9.69452 9.36401 7.36194C11.1055 5.79215 12.4327 3.80893 13.2259 1.59124C12.8219 5.02099 11.196 8.18482 8.65174 10.4916C8.4557 10.6699 8.25967 10.8415 8.0571 11H21.4725C21.27 10.8415 21.0674 10.6699 20.8779 10.4916C18.3196 8.19074 16.6794 5.02634 16.2645 1.59124C17.0601 3.80936 18.3895 5.79254 20.1329 7.36194C22.7064 9.69505 26.0394 10.99 29.4969 11V0Z" fill="#E5E4D9"/>
<path d="M47.7741 9.40876C48.1792 5.97937 49.805 2.81593 52.3483 0.508403C52.5443 0.330132 52.7403 0.165066 52.9429 0H31.5031V11H61V0C58.1075 0.0124482 55.2885 0.921267 52.9234 2.60378C50.5582 4.2863 48.761 6.66149 47.7741 9.40876Z" fill="#E5E4D9"/>
</svg>
