<svg width="57" height="56" viewBox="0 0 57 56" fill="none" xmlns="http://www.w3.org/2000/svg">
<path d="M55 27.9951C54.999 22.6553 53.4147 17.4356 50.4473 12.9961C47.4799 8.55659 43.2628 5.09669 38.3291 3.05387C33.3954 1.01105 27.9668 0.477053 22.7296 1.5194C17.4924 2.56175 12.6819 5.13363 8.9064 8.90984C5.13087 12.6861 2.55986 17.497 1.51846 22.7344C0.477048 27.9717 1.01202 33.4003 3.05573 38.3336C5.09943 43.2669 8.56009 47.4834 13.0001 50.45C17.4401 53.4166 22.6601 55 28 55H55L47.0922 47.0874C49.6024 44.5824 51.5931 41.6063 52.9502 38.3299C54.3072 35.0535 55.0038 31.5414 55 27.9951Z" fill="#E5E4D9" stroke="#E5E4D9" stroke-width="1.5" stroke-miterlimit="10"/>
</svg>
